<?xml version="1.0" standalone="no"?>
<!DOCTYPE svg PUBLIC "-//W3C//DTD SVG 20010904//EN"
 "http://www.w3.org/TR/2001/REC-SVG-20010904/DTD/svg10.dtd">
<svg version="1.0" xmlns="http://www.w3.org/2000/svg"
 width="1280.000000pt" height="850.000000pt" viewBox="0 0 1280.000000 850.000000"
 preserveAspectRatio="xMidYMid meet">
<metadata>
Created by potrace 1.15, written by Peter Selinger 2001-2017
</metadata>
<g transform="translate(0.000000,850.000000) scale(0.100000,-0.100000)"
fill="#000000" stroke="none">
<path d="M3860 8459 c0 -35 -36 -79 -63 -79 -12 0 -39 11 -60 25 -41 29 -48
18 -19 -30 24 -38 131 -143 154 -151 11 -3 18 -15 18 -29 0 -22 21 -45 104
-108 20 -16 36 -37 36 -48 0 -24 102 -129 145 -150 23 -11 34 -27 48 -69 10
-30 25 -62 33 -71 9 -10 45 -22 82 -29 135 -24 220 -83 323 -222 28 -37 55
-68 60 -68 15 0 10 47 -13 107 -42 115 -84 160 -200 219 -101 51 -158 97 -158
128 0 25 -8 37 -34 52 -11 6 -24 24 -29 40 -13 40 -26 54 -48 54 -12 0 -30 17
-47 46 -18 31 -36 47 -54 51 -19 4 -31 16 -42 44 -11 27 -22 39 -35 39 -12 0
-32 16 -48 37 -15 21 -52 61 -80 90 -42 42 -53 59 -53 85 0 18 -5 40 -10 48
-8 12 -10 9 -10 -11z"/>
<path d="M10109 8028 c-8 -7 -27 -30 -43 -50 -15 -21 -33 -38 -40 -38 -23 0
-54 -44 -102 -143 -48 -101 -64 -118 -89 -97 -22 18 -31 6 -66 -85 -34 -91
-54 -119 -65 -91 -4 9 -4 35 0 56 6 36 4 40 -14 40 -27 0 -52 -55 -80 -175
-23 -99 -32 -115 -66 -115 -28 0 -42 -24 -77 -137 -44 -138 -62 -167 -137
-223 -91 -68 -383 -368 -499 -513 -99 -125 -127 -151 -178 -161 -17 -4 -37
-14 -44 -22 -16 -20 -24 -18 -57 16 -52 52 -127 38 -191 -35 -34 -39 -33 -59
2 -50 21 5 21 5 3 -7 -60 -41 -87 -64 -199 -169 -196 -182 -389 -319 -452
-319 -17 0 -41 -7 -53 -16 -27 -19 -28 -14 -2 28 25 42 25 60 -1 84 -18 17
-20 26 -14 81 7 67 4 70 -35 48 -14 -8 -33 -14 -42 -15 -15 0 -15 5 4 61 11
33 17 63 14 66 -3 4 -18 -4 -32 -18 l-27 -24 7 36 c5 26 2 40 -8 48 -10 8 -13
23 -9 47 7 44 0 43 -32 -3 -28 -42 -32 -80 -10 -109 8 -10 15 -22 15 -26 0
-13 -65 -9 -78 4 -18 18 -14 53 8 73 14 12 17 25 13 46 -3 18 1 38 11 54 33
50 15 60 -34 18 l-32 -26 4 34 c3 32 1 34 -32 39 -31 4 -35 9 -37 35 0 17 -2
34 -2 38 -1 5 -15 -1 -32 -13 -45 -33 -45 -19 1 33 29 33 52 48 77 53 124 23
507 546 521 711 4 48 8 56 35 70 46 24 221 197 394 391 86 96 169 182 187 193
40 24 73 24 138 -1 28 -11 54 -18 56 -16 2 3 -4 16 -13 30 -17 25 -16 26 6 35
13 4 71 14 129 20 138 16 262 39 274 51 6 6 4 15 -3 24 -11 13 -6 15 31 18 42
3 43 4 41 36 -3 68 -56 83 -113 32 -38 -34 -48 -37 -56 -16 -10 26 -34 26 -97
0 -78 -31 -141 -41 -162 -24 -12 10 -26 10 -73 -3 -31 -9 -86 -21 -121 -26
-97 -16 -165 -53 -185 -100 -8 -22 -20 -42 -27 -46 -8 -6 -8 -2 0 13 6 11 11
23 11 27 0 33 -375 -282 -471 -396 -25 -30 -60 -75 -78 -101 -17 -27 -34 -48
-37 -48 -2 0 -9 11 -14 25 -17 45 -47 33 -157 -62 -76 -66 -126 -141 -164
-245 -56 -153 -109 -245 -191 -334 -60 -64 -80 -94 -92 -135 -9 -29 -16 -58
-16 -65 0 -6 -7 -18 -16 -25 -14 -11 -18 -10 -30 6 -25 33 -17 97 16 144 18
24 32 59 35 84 8 60 56 158 104 210 50 54 71 102 71 164 0 70 -26 112 -91 146
-73 37 -166 50 -278 37 -104 -12 -125 -7 -211 52 -36 24 -91 55 -122 68 -32
14 -58 27 -58 30 0 3 22 13 49 23 51 18 170 102 291 206 118 102 168 129 264
146 190 33 496 176 496 231 0 34 -95 2 -195 -66 -57 -38 -98 -50 -179 -50 -79
-1 -83 -2 -335 -119 -85 -39 -182 -91 -215 -115 -80 -57 -155 -138 -163 -176
-8 -41 -15 -43 -54 -17 -44 30 -54 63 -68 225 -10 124 -29 202 -49 202 -25 0
-89 -106 -110 -183 -10 -35 -9 -41 12 -62 l22 -22 -23 -21 c-14 -12 -23 -32
-23 -49 0 -48 -20 -66 -83 -71 -77 -6 -90 -1 -201 73 -58 38 -121 72 -154 81
-32 9 -70 28 -87 43 -16 15 -76 60 -132 99 -62 44 -131 104 -180 158 -43 47
-90 92 -105 100 -38 20 -68 18 -68 -3 0 -40 96 -167 133 -177 13 -3 51 -37 85
-75 38 -43 90 -86 139 -117 43 -26 128 -82 188 -125 114 -79 181 -117 250
-139 l40 -13 -74 -34 c-40 -18 -92 -47 -116 -64 -36 -26 -55 -31 -137 -39
-182 -17 -284 -76 -333 -193 -20 -49 -19 -86 6 -149 11 -29 27 -86 35 -125 7
-40 27 -100 44 -133 32 -64 37 -89 19 -107 -9 -9 -2 -16 27 -30 25 -12 40 -27
44 -43 4 -15 15 -26 30 -30 23 -5 21 -8 -23 -29 -26 -12 -47 -26 -47 -29 0 -4
17 -7 37 -7 33 0 38 -3 41 -24 4 -27 -20 -51 -50 -51 -9 0 -33 14 -51 30 -19
17 -41 30 -49 30 -25 0 -58 -31 -58 -55 0 -41 -18 -38 -74 15 l-54 51 -12 -35
c-6 -20 -10 -61 -9 -92 2 -37 -2 -58 -10 -64 -7 -4 -25 -43 -40 -86 l-26 -79
-40 0 c-30 0 -40 -4 -43 -18 -2 -9 4 -20 13 -23 34 -13 41 -94 9 -94 -21 0
-42 -41 -50 -97 -6 -50 -5 -53 20 -63 15 -5 51 -10 81 -10 61 0 73 -11 51 -45
-15 -23 -21 -24 -109 -23 -56 0 -104 -4 -122 -12 l-30 -14 25 -4 c33 -5 39
-17 33 -63 -5 -36 -4 -39 18 -39 13 1 44 5 69 10 25 4 46 7 48 6 1 -2 -18 -23
-43 -48 -27 -27 -45 -54 -45 -68 0 -20 4 -22 36 -17 l37 6 -24 -25 c-29 -32
-96 -67 -114 -61 -7 3 -15 28 -17 57 -8 81 -48 115 -201 171 -47 17 -65 30
-96 72 -132 179 -733 667 -899 731 -57 22 -91 20 -119 -5 -31 -30 -52 -12 -50
41 1 43 -20 80 -108 184 -68 80 -213 209 -306 271 -71 48 -375 191 -428 201
-39 8 -55 31 -71 104 -14 63 -36 110 -50 110 -6 0 -10 -9 -10 -21 0 -25 -17
-59 -30 -59 -11 0 -35 81 -45 150 -14 89 -55 150 -55 81 0 -66 -20 -76 -70
-34 -24 20 -31 32 -27 51 3 18 0 26 -14 29 -11 3 -24 21 -30 44 -20 65 -69 91
-69 36 0 -12 -4 -28 -9 -36 -6 -10 -22 12 -56 75 -91 169 -134 234 -155 234
-4 0 -12 -17 -17 -37 -4 -20 -14 -38 -21 -41 -7 -2 -48 32 -90 77 -43 45 -85
81 -93 81 -9 0 -34 16 -57 36 -46 39 -54 30 -21 -23 12 -19 20 -36 18 -38 -2
-2 -51 30 -108 71 -99 71 -141 89 -141 61 0 -7 13 -26 30 -42 16 -15 27 -32
24 -37 -3 -4 -31 -8 -62 -8 -64 0 -102 -8 -102 -21 0 -5 10 -11 23 -13 12 -2
58 -11 102 -19 44 -8 109 -28 145 -45 l65 -31 -61 6 c-36 3 -70 1 -80 -5 -18
-10 -17 -11 9 -21 16 -6 39 -11 51 -11 34 0 103 -26 153 -58 46 -29 54 -42 24
-42 -30 0 -46 -26 -33 -55 12 -26 36 -34 157 -53 137 -22 235 -64 235 -101 0
-16 -6 -18 -46 -13 -37 4 -46 2 -42 -9 5 -15 26 -27 101 -58 29 -12 50 -29 56
-43 13 -35 37 -52 141 -100 95 -45 148 -87 135 -107 -3 -6 -15 -11 -26 -11
-40 0 -10 -37 51 -62 49 -21 61 -38 67 -105 7 -77 29 -108 182 -255 159 -153
307 -272 444 -356 59 -37 110 -74 112 -84 9 -26 152 -157 193 -176 48 -22 52
-28 52 -82 0 -87 48 -158 234 -351 188 -194 306 -284 502 -382 158 -79 163
-91 49 -121 -186 -47 -556 -76 -988 -76 -499 0 -758 22 -1142 96 -126 25 -336
62 -465 84 -130 21 -257 44 -283 50 -87 19 -410 30 -589 20 -419 -24 -733
-107 -914 -241 -99 -73 -81 -75 65 -8 106 49 123 50 81 2 -44 -50 -80 -130
-80 -179 0 -29 8 -52 29 -81 62 -86 127 -102 412 -105 207 -1 202 -2 484 88
322 102 471 130 654 121 167 -8 274 -40 421 -127 119 -70 165 -84 285 -84 101
0 141 7 293 50 90 25 194 45 367 69 61 8 180 32 265 54 231 58 678 126 698
106 40 -40 -493 -253 -874 -349 -259 -65 -296 -69 -734 -69 -424 0 -478 4
-685 53 -188 44 -288 54 -540 54 -232 -1 -334 -11 -495 -50 -82 -21 -326 -112
-428 -161 -108 -53 -62 -56 55 -4 112 49 310 113 445 143 94 21 126 23 383 23
288 0 397 -9 548 -45 288 -68 802 -95 1092 -56 184 25 365 61 531 107 161 44
172 46 154 24 -35 -42 -289 -168 -395 -195 -79 -20 -323 -26 -825 -19 -256 4
-639 7 -851 8 l-386 1 -124 -51 c-198 -81 -345 -164 -369 -210 -7 -11 9 -5 43
18 114 78 277 142 417 164 108 17 327 6 485 -24 187 -36 372 -55 600 -61 243
-7 585 7 726 30 110 18 302 24 315 11 13 -12 -11 -23 -116 -51 -318 -85 -569
-98 -1027 -52 -651 65 -898 51 -1117 -62 -87 -45 -72 -52 26 -13 228 90 504
104 943 46 207 -28 310 -36 538 -44 125 -4 230 -11 234 -15 14 -13 -40 -44
-96 -55 -68 -14 -317 -14 -436 -1 -82 10 -142 21 -340 64 -344 76 -686 19
-947 -157 -87 -60 -191 -147 -133 -112 17 10 46 29 65 42 62 41 71 35 84 -61
12 -91 74 -117 304 -126 95 -4 175 -10 179 -13 22 -23 -93 -112 -225 -175 -64
-31 -88 -37 -142 -37 -57 0 -73 5 -125 35 -32 19 -89 64 -125 100 -108 109
-169 232 -234 479 -41 156 -57 187 -116 223 -73 45 -330 91 -330 58 0 -16 34
-29 129 -46 66 -12 101 -24 122 -41 56 -47 130 -193 219 -430 138 -365 427
-530 880 -501 223 14 507 79 688 158 64 28 124 54 132 57 8 4 -21 -32 -65 -79
-89 -95 -195 -257 -195 -297 0 -26 0 -26 20 6 10 17 28 50 39 71 61 119 295
305 561 445 274 145 614 235 972 257 317 20 650 85 847 167 139 57 317 144
456 223 206 117 250 140 299 154 26 8 62 28 81 45 34 29 55 39 55 24 0 -14
-86 -116 -137 -163 -183 -167 -606 -363 -973 -449 -47 -11 -150 -30 -230 -41
-248 -36 -406 -83 -602 -181 -176 -88 -300 -175 -558 -394 -94 -80 -199 -164
-232 -187 -116 -78 -286 -145 -455 -178 -92 -18 -115 -3 -157 100 -14 34 -14
32 -15 -63 -1 -72 3 -108 15 -133 23 -48 138 -153 198 -180 105 -47 294 -51
431 -9 102 30 143 21 263 -61 92 -63 128 -67 452 -61 151 3 295 11 319 17 24
6 47 9 52 8 4 -2 -39 -42 -95 -90 -140 -120 -285 -266 -292 -293 -3 -13 1 -34
11 -48 15 -24 15 -25 -8 -31 -29 -7 -123 -98 -133 -128 -4 -12 -17 -30 -29
-40 -44 -34 -112 -229 -135 -387 -18 -119 -10 -197 23 -246 32 -46 33 -78 10
-172 -26 -106 -24 -405 5 -540 30 -139 29 -158 -10 -194 -18 -16 -39 -44 -48
-61 -9 -19 -33 -42 -58 -56 -24 -13 -50 -36 -59 -50 -9 -15 -32 -44 -51 -64
l-35 -36 49 1 c40 2 49 -1 52 -17 2 -10 -5 -31 -17 -47 -12 -15 -21 -31 -21
-34 0 -16 28 4 112 83 52 48 103 92 113 97 12 8 20 29 26 73 5 34 17 74 26 89
16 23 19 63 25 283 8 307 20 411 54 451 12 13 10 19 -16 44 -17 16 -30 37 -30
46 0 10 23 67 50 127 28 60 59 144 70 186 20 78 40 276 40 393 l0 63 93 -6 92
-7 43 37 c24 20 50 36 58 36 22 0 61 22 263 150 102 64 220 136 261 159 42 23
119 81 173 129 133 118 176 152 193 152 22 0 17 -25 -21 -107 -19 -42 -35 -78
-35 -80 0 -2 11 -8 25 -13 39 -15 27 -90 -15 -90 -16 0 -17 -4 -9 -32 12 -44
12 -48 -6 -48 -31 0 -11 -92 25 -117 31 -22 30 -29 -35 -203 -18 -49 -9 -67
22 -39 l24 23 -6 -75 -6 -74 36 40 c72 79 157 221 170 285 4 19 17 46 29 58
18 21 21 34 19 113 -2 95 -22 164 -23 78 0 -38 -5 -50 -24 -62 -18 -12 -29
-36 -45 -104 -12 -49 -26 -95 -32 -103 -30 -48 -39 99 -14 240 8 47 15 105 15
130 1 65 30 146 52 142 15 -2 17 3 12 27 -4 19 4 60 25 123 36 104 57 142 73
132 12 -8 4 -115 -16 -211 -7 -35 -9 -60 -4 -57 12 8 24 38 57 151 41 135 81
184 81 97 0 -24 7 -41 25 -56 14 -12 25 -30 25 -40 0 -43 71 -33 96 13 19 38
12 47 -20 25 -47 -31 -61 -14 -26 31 36 46 19 58 -32 22 -16 -12 -32 -18 -36
-14 -4 4 -6 47 -5 96 1 49 -1 89 -4 89 -4 0 -19 -15 -33 -32 -24 -28 -30 -31
-44 -19 -23 19 -20 36 15 75 17 20 35 51 40 71 10 36 40 60 64 51 16 -6 6 -56
-16 -82 -15 -19 2 -105 32 -153 29 -48 42 -27 22 38 -14 50 -14 60 1 122 9 37
16 88 16 114 0 43 -1 46 -22 40 l-23 -7 23 23 23 24 20 -24 c10 -13 19 -36 19
-53 0 -44 15 -26 34 43 16 55 16 62 2 78 -22 24 -20 40 14 117 17 37 34 88 37
111 5 38 11 47 44 63 50 26 57 39 28 61 l-23 17 34 4 c28 2 36 8 38 26 3 17 8
21 22 17 13 -4 22 1 30 15 12 22 30 27 30 9 0 -6 -16 -37 -35 -69 -19 -32 -35
-71 -35 -86 0 -16 -11 -47 -25 -69 -68 -112 -66 -119 16 -52 28 23 64 51 78
62 l26 20 -15 -21 c-8 -12 -39 -49 -67 -83 -29 -34 -53 -71 -53 -82 0 -10 2
-19 4 -19 3 0 35 29 73 66 87 83 119 101 63 36 -23 -28 -57 -79 -74 -114 -28
-54 -37 -63 -67 -69 -42 -9 -83 -56 -105 -122 -19 -58 -9 -93 30 -103 36 -9
46 2 46 48 0 41 0 41 -20 23 -29 -27 -35 -12 -16 40 14 36 22 45 42 45 15 0
24 6 24 15 0 8 12 17 28 21 15 3 35 8 45 11 9 2 29 29 42 58 29 60 109 155
131 155 22 0 16 -17 -13 -39 -26 -19 -26 -20 -7 -21 22 0 46 23 58 55 7 20 8
20 26 -2 23 -29 30 -29 30 2 0 15 13 36 35 57 25 22 37 43 42 71 5 31 9 38 24
34 14 -4 19 0 19 17 0 31 32 58 71 61 17 1 47 15 66 30 19 15 37 25 39 22 10
-10 -17 -86 -33 -95 -12 -7 -15 -18 -10 -46 l6 -36 -39 0 c-48 0 -54 -9 -74
-121 -8 -46 -21 -105 -29 -131 -8 -27 -13 -48 -10 -48 3 0 21 14 40 30 18 17
41 30 49 30 16 0 14 -5 -16 -50 -10 -14 -20 -50 -24 -80 -4 -30 -14 -65 -22
-77 -15 -24 -54 -32 -54 -10 1 13 17 91 27 122 3 11 -18 -6 -48 -38 -56 -58
-89 -73 -89 -38 0 18 45 91 114 186 16 22 -12 -4 -63 -57 -51 -54 -97 -98
-102 -98 -5 0 -9 11 -9 25 0 34 81 137 135 171 24 16 48 38 54 49 15 31 23 65
15 65 -4 0 -42 -34 -85 -75 -43 -41 -84 -75 -89 -75 -6 0 -25 7 -41 16 -17 8
-37 13 -45 10 -17 -7 -69 -114 -60 -124 4 -3 26 16 51 44 58 65 58 36 0 -44
-48 -65 -72 -80 -61 -37 9 36 -5 30 -41 -18 -40 -54 -73 -124 -72 -157 1 -23
2 -22 16 10 16 38 51 80 66 80 9 0 4 -62 -10 -117 -8 -35 8 -28 83 33 73 60
110 81 121 71 3 -4 -4 -18 -17 -32 -18 -19 -25 -40 -28 -85 -2 -33 -1 -60 4
-60 4 0 20 15 36 33 l29 32 -6 -42 c-8 -55 3 -55 49 -1 47 54 49 81 6 58 -15
-8 -20 -5 -29 22 -18 51 -14 68 15 68 17 0 40 -16 75 -52 l49 -52 38 37 c54
52 64 49 56 -19 -6 -46 -4 -56 7 -52 8 2 19 18 24 34 15 43 24 54 44 54 23 0
42 -22 33 -36 -4 -6 -15 -14 -25 -17 -15 -6 -17 -13 -12 -37 5 -23 3 -30 -8
-30 -34 0 -123 -137 -103 -157 8 -8 53 35 74 70 9 15 19 27 22 27 4 0 7 -23 7
-51 1 -29 6 -56 11 -61 13 -13 42 30 42 63 0 15 16 50 35 78 19 28 35 53 35
57 0 4 -14 4 -31 0 -31 -6 -31 -6 -23 27 4 17 8 53 8 79 1 41 3 45 19 37 25
-14 86 0 100 22 18 28 23 24 38 -29 l13 -47 6 80 c3 44 10 89 17 100 6 12 15
50 18 85 8 70 26 110 51 110 26 0 46 66 39 124 l-7 51 23 -21 c13 -12 39 -29
58 -39 30 -15 32 -20 27 -48 -3 -18 -10 -61 -15 -97 -7 -48 -15 -69 -30 -79
-31 -20 -26 -46 19 -90 22 -22 40 -49 40 -60 0 -29 -17 -26 -24 4 -10 40 -26
29 -26 -19 0 -25 -4 -47 -10 -51 -12 -7 -40 88 -40 139 0 83 -32 86 -49 5 -13
-58 -15 -245 -3 -253 5 -3 17 9 27 26 l18 31 23 -26 c13 -15 29 -45 35 -67 11
-35 10 -44 -12 -84 -24 -46 -20 -75 6 -40 22 29 71 163 79 216 4 26 12 51 18
54 16 10 38 -25 38 -58 0 -31 11 -36 30 -13 7 8 18 15 26 15 17 0 44 28 44 46
0 11 -6 13 -19 9 -34 -10 -41 24 -41 197 0 147 8 230 24 245 8 9 54 -24 72
-52 15 -23 14 -28 -11 -91 -32 -81 -28 -122 20 -190 l34 -47 -25 -29 c-15 -19
-24 -42 -24 -64 0 -42 8 -43 21 -4 15 41 23 38 35 -12 6 -31 15 -44 29 -46 11
-2 30 -15 42 -30 l23 -27 0 25 c0 14 -14 68 -30 120 -40 125 -39 170 2 123 31
-35 50 -87 57 -152 l7 -66 28 58 c28 55 46 72 46 44 0 -15 70 -100 76 -94 2 2
-3 20 -11 40 -16 38 -22 227 -7 227 4 0 22 -15 41 -32 28 -25 35 -39 37 -75 2
-24 13 -60 25 -80 l22 -36 -22 -16 c-24 -18 -42 -91 -22 -91 6 0 11 6 11 13 0
8 9 24 20 37 19 21 20 37 20 222 l0 198 43 -1 c60 -1 91 -12 95 -32 5 -23 -15
-47 -39 -47 -10 0 -23 -9 -29 -19 -15 -28 -13 -300 3 -330 22 -42 32 -19 28
63 -2 63 0 77 10 74 9 -3 15 -24 17 -58 3 -55 12 -74 43 -90 12 -7 24 -4 43
11 54 42 26 128 -53 169 -65 33 -75 64 -36 115 15 19 17 19 46 2 17 -9 34 -17
39 -17 5 0 8 27 7 60 -2 60 16 90 21 35 1 -16 8 -40 14 -53 9 -17 9 -31 0 -56
-18 -49 -15 -80 12 -106 42 -38 56 -22 56 65 0 41 4 75 9 75 12 0 19 -30 27
-115 7 -76 19 -109 35 -99 6 4 8 35 3 84 -5 64 -3 82 11 104 15 23 16 33 6 65
-6 21 -11 48 -11 60 0 33 23 20 31 -17 4 -18 18 -49 33 -70 27 -40 102 -102
122 -102 29 0 28 132 -2 194 -20 42 -17 48 15 31 21 -10 39 -35 62 -84 24 -51
40 -73 60 -81 30 -13 49 -7 49 16 0 9 -11 14 -34 14 l-33 0 -7 68 c-4 37 -3
78 2 91 7 21 11 19 45 -36 40 -65 119 -153 136 -153 14 0 14 14 0 63 -7 27
-21 44 -49 62 -50 32 -121 127 -106 142 12 12 78 -42 182 -149 89 -91 114
-123 128 -164 9 -27 30 -66 46 -85 l29 -34 -9 35 c-6 19 -10 37 -10 39 0 2 11
-4 25 -13 13 -9 39 -16 56 -16 31 0 32 -1 14 -20 -11 -12 -15 -28 -12 -41 3
-12 0 -31 -8 -43 -7 -11 -18 -61 -24 -109 -10 -88 -41 -177 -60 -177 -6 0 -11
6 -11 13 0 16 -18 179 -26 236 -11 86 -24 19 -24 -131 0 -161 -12 -240 -41
-269 -22 -22 -45 -16 -56 14 -6 18 -9 13 -18 -28 -14 -62 -38 -67 -72 -15 -66
102 -79 106 -70 20 l7 -60 -34 0 c-18 0 -38 -6 -44 -12 -14 -18 -25 -101 -17
-127 9 -29 35 -27 35 3 0 13 9 34 19 47 l19 24 36 -19 35 -19 23 28 c18 21 32
27 63 27 92 -1 120 8 165 49 43 40 43 41 46 116 1 41 5 77 8 80 11 12 36 -7
36 -28 0 -13 8 -23 21 -26 19 -5 21 -11 16 -59 -5 -47 -3 -54 12 -54 29 0 47
-30 75 -120 24 -81 72 -177 83 -167 2 3 -12 42 -31 87 -20 44 -36 86 -36 92 0
18 35 -19 112 -118 68 -87 73 -92 76 -66 3 25 -15 127 -34 190 -4 16 -2 22 8
22 8 0 82 -39 164 -86 209 -120 306 -168 406 -198 52 -16 89 -33 92 -43 6 -14
20 -15 110 -10 128 8 136 3 111 -73 -22 -65 -19 -82 49 -273 68 -193 102 -259
179 -343 l59 -65 -6 -237 c-4 -130 -12 -293 -17 -360 l-11 -124 29 -28 c16
-16 42 -52 58 -82 48 -89 73 -122 107 -138 18 -8 50 -39 72 -67 41 -56 55 -63
76 -38 19 23 35 18 61 -20 13 -19 31 -37 39 -40 19 -8 70 48 70 75 0 30 -36
60 -70 60 -24 0 -35 7 -51 35 -13 21 -32 38 -48 41 -37 9 -50 22 -73 71 -14
29 -33 50 -61 65 -70 40 -82 65 -82 176 1 53 5 158 9 232 14 212 -20 547 -76
755 -31 116 -99 283 -141 347 -20 30 -59 75 -86 100 -27 25 -59 65 -71 89 -31
61 -284 309 -397 389 -51 36 -139 91 -195 122 -153 85 -191 108 -185 114 9 9
309 -36 382 -57 89 -27 155 -60 230 -117 77 -57 125 -79 213 -94 135 -23 300
15 422 96 124 82 147 91 235 90 74 0 92 -5 237 -62 117 -46 169 -62 206 -62
96 0 198 55 232 124 28 58 28 198 0 287 -47 151 -221 326 -472 475 -116 68
-212 105 -518 198 -438 134 -764 254 -1138 421 -263 118 -302 158 -64 66 266
-103 494 -174 884 -275 439 -114 655 -213 991 -451 266 -188 389 -250 560
-286 90 -18 125 -20 297 -16 166 4 209 8 290 30 206 54 305 116 543 346 197
189 187 184 386 221 143 27 168 37 232 97 97 90 167 246 156 344 -12 96 -105
222 -219 296 -194 126 -551 258 -813 302 -111 19 -185 27 -475 51 -134 12
-561 27 -1095 40 -231 6 -604 15 -830 20 -454 11 -678 23 -865 46 -280 33
-736 120 -764 146 -6 4 25 8 68 8 92 0 191 30 360 109 167 78 258 144 391 284
178 185 214 243 230 362 7 51 26 90 54 112 9 7 58 43 109 80 118 84 232 192
232 218 0 11 52 88 116 170 141 180 190 274 208 397 13 92 33 132 91 188 56
54 78 95 65 120 -21 39 41 103 111 115 29 5 43 13 47 27 3 11 16 21 34 25 28
5 47 27 35 39 -3 3 -18 -1 -34 -9 -43 -22 -73 -30 -73 -18 0 5 33 47 73 93 39
46 95 114 122 150 33 44 63 73 90 85 21 10 72 48 112 85 40 38 81 68 92 68 56
0 68 36 23 69 -34 24 -125 61 -150 61 -10 0 -25 -6 -33 -12z m91 -47 c0 -13
-25 -20 -49 -14 -26 7 -26 12 -4 28 18 13 53 4 53 -14z m-1992 -360 c11 -6 6
-23 -22 -75 -20 -37 -36 -76 -36 -87 0 -24 -79 -110 -135 -149 -43 -29 -149
-65 -165 -55 -21 13 -8 55 34 111 81 110 252 256 306 263 3 0 11 -3 18 -8z
m-1473 -63 c-10 -34 -47 -64 -111 -87 -31 -12 -58 -20 -60 -19 -5 6 151 128
164 128 9 0 11 -7 7 -22z m-245 -343 c14 -17 5 -36 -15 -28 -16 6 -21 43 -6
43 5 0 14 -7 21 -15z m-109 -117 l21 -41 -28 7 c-37 10 -84 44 -84 61 0 21 31
35 52 24 10 -5 27 -28 39 -51z m1252 6 c-25 -74 -3 -156 32 -120 19 18 35 13
35 -12 0 -45 -114 -242 -185 -321 -68 -75 -237 -191 -279 -191 -22 0 -29 35
-13 72 8 18 46 71 86 118 41 48 76 101 83 123 8 25 20 42 35 48 13 5 23 16 23
25 0 36 164 304 186 304 10 0 9 -11 -3 -46z m-1498 13 c10 -8 15 -19 11 -25
-7 -12 -70 8 -90 29 -16 15 58 11 79 -4z m1675 -43 c0 -17 -24 -29 -40 -19 -8
5 -6 13 6 26 18 20 34 17 34 -7z m-1974 -19 c25 -62 21 -68 -74 -113 -48 -23
-99 -42 -114 -42 -23 0 -140 69 -153 91 -4 5 34 9 92 9 150 1 223 24 223 72 0
28 9 22 26 -17z m1299 -2 c35 -34 -3 -125 -62 -149 -19 -8 -68 -14 -117 -14
-78 0 -87 2 -132 33 -45 29 -85 79 -74 90 3 3 66 12 140 21 74 9 149 20 165
25 45 14 62 13 80 -6z m-945 -68 c6 -8 9 -19 5 -25 -7 -11 -24 -4 -60 24 -19
15 -19 15 11 16 17 0 37 -7 44 -15z m401 -31 c16 -20 1 -48 -29 -52 -23 -4
-58 40 -47 58 10 16 61 12 76 -6z m-3766 -44 c4 -6 -7 -10 -24 -10 -17 0 -31
5 -31 10 0 6 11 10 24 10 14 0 28 -4 31 -10z m6599 -28 c13 -21 -79 -151 -244
-343 -129 -150 -198 -214 -262 -244 -93 -44 -105 -28 -55 71 65 128 175 259
320 382 140 118 222 164 241 134z m-6589 -52 c4 -6 4 -18 1 -27 -5 -12 -9 -13
-21 -3 -8 7 -15 19 -15 26 0 16 26 19 35 4z m208 -37 c45 -22 136 -80 202
-129 66 -50 154 -113 195 -141 85 -58 114 -86 129 -126 34 -88 -3 -120 -104
-92 -75 20 -206 89 -283 149 -117 90 -312 320 -312 369 0 17 5 19 45 15 25 -3
82 -23 128 -45z m2567 37 c0 -5 -11 -10 -24 -10 -14 0 -28 5 -31 10 -4 6 7 10
24 10 17 0 31 -4 31 -10z m975 -168 c37 -7 40 -10 41 -42 1 -19 2 -41 3 -47 2
-23 29 -14 51 17 13 18 30 30 43 30 32 0 67 -27 67 -52 0 -18 4 -20 34 -15 41
7 49 1 35 -26 -10 -18 -9 -19 25 -13 34 6 36 5 36 -18 0 -14 5 -36 11 -50 13
-28 -1 -56 -29 -56 -11 0 -13 9 -9 40 3 22 3 40 1 40 -9 0 -54 -89 -54 -108 0
-16 -8 -23 -35 -28 -20 -3 -39 -4 -42 0 -3 3 2 25 11 49 18 49 21 77 5 77 -15
0 -52 -90 -53 -130 -1 -33 1 -35 33 -38 48 -5 71 3 128 42 74 51 96 51 152 0
44 -39 86 -116 77 -139 -8 -22 9 -18 43 11 17 14 31 23 31 20 0 -3 -20 -34
-45 -67 -54 -74 -64 -104 -41 -127 27 -27 45 -11 119 114 31 52 47 49 67 -12
15 -46 30 -43 30 6 0 45 16 54 26 14 15 -60 -37 -194 -75 -194 -31 0 -34 18
-12 55 11 19 17 35 12 35 -4 0 -34 -25 -66 -55 -41 -38 -61 -51 -67 -42 -4 6
-8 16 -8 20 0 5 -4 5 -10 2 -6 -4 0 -24 15 -52 24 -45 24 -82 0 -50 -8 12 -27
17 -59 17 -40 0 -48 4 -58 25 -12 28 -25 30 -62 13 -22 -9 -29 -8 -47 8 -20
18 -21 18 -35 0 -16 -23 -10 -60 17 -98 22 -32 34 -97 20 -117 -16 -25 -39 5
-52 67 -13 65 -23 87 -52 120 -29 31 -37 28 -37 -17 0 -24 -8 -48 -22 -66
l-22 -28 32 -61 c18 -34 32 -65 32 -71 0 -14 -80 66 -97 98 -8 16 -12 35 -9
43 4 10 -2 14 -19 14 -18 0 -24 6 -27 28 -4 26 -5 25 -28 -20 -13 -27 -28 -48
-32 -48 -4 0 -8 41 -8 90 0 86 -10 115 -24 68 -4 -13 -9 -72 -12 -133 -3 -60
-7 -116 -10 -124 -8 -24 -34 8 -40 50 -6 37 -8 39 -43 39 -20 0 -53 -5 -75 -9
l-38 -9 6 36 c4 20 9 66 13 102 l6 65 -31 -29 c-19 -18 -37 -50 -46 -80 -9
-28 -36 -86 -62 -130 -43 -73 -47 -77 -62 -62 -12 12 -17 36 -18 78 -1 46 -6
65 -19 74 -28 21 -38 6 -31 -44 7 -52 -8 -117 -29 -126 -25 -9 -37 30 -30 94
8 73 -4 100 -46 100 -37 0 -63 -13 -112 -56 -44 -40 -57 -42 -57 -10 0 17 12
34 35 52 58 44 44 63 -48 65 -63 1 -99 10 -95 24 2 6 13 10 26 10 12 -1 21 2
19 5 -30 55 -30 57 -7 129 32 96 34 99 59 77 21 -19 21 -19 21 27 0 26 -3 47
-6 47 -3 0 -19 -9 -35 -21 -19 -13 -40 -19 -54 -16 -15 2 -30 -2 -37 -11 -17
-20 -87 -51 -114 -52 -12 0 -27 6 -33 14 -10 12 -7 17 15 28 17 8 32 27 39 48
12 35 44 60 78 60 22 0 22 11 -3 43 -11 14 -20 28 -20 31 0 16 32 2 70 -29 48
-40 60 -43 60 -15 0 20 -4 25 -53 61 -16 12 -42 46 -58 75 -17 30 -44 65 -60
78 -37 31 -23 41 19 15 18 -10 36 -19 41 -19 5 0 7 27 4 60 -3 33 -3 60 1 60
3 0 20 -23 38 -51 21 -34 43 -56 66 -66 42 -18 49 -12 26 22 -14 21 -15 30 -5
52 10 23 16 25 49 20 20 -3 48 -9 61 -13 23 -7 24 -6 18 35 -3 23 -2 41 1 39
64 -33 61 -32 106 -10 30 15 53 20 73 16 18 -4 33 -1 37 5 8 12 374 15 441 3z
m585 -336 c0 -18 -39 -31 -52 -18 -15 15 0 32 28 32 14 0 24 -6 24 -14z
m-1835 -92 c25 -27 33 -54 16 -54 -13 0 -61 51 -61 66 0 22 19 16 45 -12z
m3205 -70 c0 -71 -14 -84 -29 -26 -13 46 -13 45 -1 77 16 42 30 19 30 -51z
m-4798 29 c4 -17 4 -42 -1 -54 l-8 -24 -7 23 c-5 15 -18 25 -38 29 -37 7 -48
31 -22 50 32 23 67 13 76 -24z m4936 25 c24 -24 13 -38 -27 -38 -44 0 -59 13
-41 35 15 18 52 19 68 3z m-5093 -68 c0 -18 -33 -26 -47 -12 -6 6 -7 15 -3 22
10 16 50 8 50 -10z m309 -29 c12 -10 45 -26 75 -36 61 -20 140 -89 266 -235
50 -58 105 -109 145 -135 67 -43 240 -199 240 -216 0 -17 -53 18 -139 91 -92
77 -135 110 -146 110 -4 0 -4 -11 -1 -25 5 -18 2 -25 -9 -25 -8 0 -15 -5 -15
-12 0 -23 226 -234 305 -285 132 -85 126 -78 86 -99 -19 -11 -47 -32 -62 -48
-24 -25 -31 -27 -67 -21 -62 10 -150 56 -232 122 -91 73 -300 283 -373 375
-45 58 -146 228 -134 228 2 0 37 -11 77 -25 40 -14 75 -25 77 -25 12 0 -4 25
-53 81 -71 81 -104 132 -104 162 0 42 29 50 64 18z m1536 -31 c27 -14 49 -18
67 -14 25 7 26 6 19 -27 -9 -45 -57 -103 -88 -107 -27 -3 -123 30 -154 53 -30
23 -2 33 71 27 57 -4 63 -3 70 17 10 32 -4 45 -25 26 -30 -27 -57 4 -28 33 16
16 22 15 68 -8z m287 -7 c3 -7 -7 -15 -21 -19 -21 -5 -26 -12 -26 -38 0 -41
-28 -82 -81 -117 -54 -36 -68 -37 -61 -4 2 14 -1 32 -8 40 -19 23 -5 43 40 56
27 8 45 21 50 35 19 48 96 82 107 47z m2718 -43 c9 -30 -30 -92 -122 -191
-104 -112 -129 -146 -142 -195 -20 -77 -100 -183 -187 -250 -98 -76 -150 -105
-173 -96 -27 11 -83 61 -85 77 -1 8 -10 23 -19 33 -17 19 -16 22 28 73 63 73
68 84 50 103 -20 20 -19 26 5 26 64 0 371 211 526 361 84 82 108 93 119 59z
m-3096 -166 c60 -55 93 -99 106 -141 8 -29 -13 -31 -48 -3 -34 27 -38 25 -26
-7 8 -23 7 -30 -8 -40 -9 -8 -24 -11 -31 -8 -8 3 -20 5 -28 5 -20 0 -17 28 6
57 27 35 25 50 -13 108 -68 102 -50 115 42 29z m2061 28 c13 -11 20 -24 16
-30 -11 -18 -101 -15 -116 3 -32 39 56 63 100 27z m1142 -4 c2 -15 11 -24 27
-26 21 -3 23 -7 19 -47 -11 -97 -151 -236 -335 -332 -70 -37 -80 -26 -52 55
38 114 135 245 238 322 73 55 98 62 103 28z m-983 -32 c49 -36 64 -61 51 -85
-17 -33 -225 -181 -252 -181 -7 0 -35 13 -63 28 -59 32 -67 59 -35 121 33 66
80 46 80 -34 0 -13 4 -26 8 -29 14 -8 146 89 166 123 25 44 6 59 -41 31 l-33
-19 16 25 c33 49 57 54 103 20z m-2295 -26 c5 -5 6 -16 2 -25 -7 -19 -41 -13
-66 11 -13 13 -13 16 0 24 15 10 48 4 64 -10z m452 -43 c-30 -50 -33 -101 -11
-154 20 -47 13 -68 -15 -53 -27 14 -52 65 -52 105 0 38 29 99 68 140 37 40 42
18 10 -38z m-161 29 c20 -31 16 -90 -6 -94 -19 -3 -49 53 -49 92 0 34 33 35
55 2z m1460 -23 c18 -42 18 -43 4 -43 -10 0 -39 59 -39 80 0 20 20 -1 35 -37z
m-1007 -25 c2 -9 -11 -32 -28 -52 -17 -19 -36 -51 -41 -71 -6 -20 -24 -52 -41
-71 -30 -33 -33 -35 -45 -18 -17 23 -17 85 0 106 6 9 21 18 32 20 16 3 20 11
20 42 1 26 7 43 20 53 26 18 79 13 83 -9z m1218 11 c8 -14 -33 -48 -58 -49
-18 0 -33 33 -23 50 8 14 72 13 81 -1z m-81 -80 l49 -31 -23 -19 c-26 -22 -74
-25 -89 -6 -6 6 -13 29 -17 50 -6 32 -5 37 12 37 10 0 41 -14 68 -31z m-1371
-27 c-13 -21 -44 -28 -44 -11 0 7 8 21 17 31 21 24 44 7 27 -20z m588 6 c6
-18 -13 -88 -23 -88 -10 0 -12 60 -3 84 7 19 21 21 26 4z m334 -49 c18 -36 18
-39 -7 -39 -14 0 -25 11 -35 35 -27 65 9 67 42 4z m-1196 1 c23 -23 26 -72 5
-90 -30 -25 -97 75 -68 103 13 13 43 7 63 -13z m-140 -36 c0 -22 -4 -25 -21
-21 -18 5 -20 2 -17 -36 l3 -42 -54 -3 -54 -3 37 34 c20 19 36 44 36 55 0 22
24 41 53 42 12 0 17 -8 17 -26z m1170 -19 c0 -14 -4 -25 -10 -25 -5 0 -10 11
-10 25 0 14 5 25 10 25 6 0 10 -11 10 -25z m1200 -1 c0 -3 -17 -12 -37 -20
-20 -9 -63 -33 -94 -55 -59 -39 -99 -50 -99 -26 0 16 34 49 70 68 43 22 160
47 160 33z m-890 -30 c0 -2 -14 -4 -31 -4 -16 0 -28 4 -25 9 5 8 56 3 56 -5z
m-1065 -20 c33 -36 32 -49 -2 -27 -29 18 -43 33 -43 46 0 15 22 6 45 -19z
m612 -13 c17 -22 16 -61 -1 -61 -17 0 -66 56 -66 74 0 7 3 16 6 19 8 8 45 -11
61 -32z m-283 -4 c12 -19 3 -32 -19 -24 -17 7 -21 51 -3 45 6 -2 16 -12 22
-21z m-457 -39 c30 -28 29 -38 -5 -38 -31 0 -68 32 -57 49 10 17 37 13 62 -11z
m1678 2 c17 -19 17 -20 -8 -40 -14 -11 -27 -33 -29 -48 -3 -30 -32 -42 -42
-16 -3 9 -1 35 5 58 18 69 41 83 74 46z m-1019 -5 c7 -16 -14 -85 -25 -85 -11
0 -31 69 -24 86 7 18 42 18 49 -1z m374 -14 c13 -25 13 -88 0 -96 -28 -17 -72
73 -50 100 17 21 37 19 50 -4z m426 -12 c3 -6 0 -18 -9 -26 -18 -18 -37 -9
-37 18 0 21 34 27 46 8z m-1246 -25 c21 -21 22 -27 10 -34 -8 -5 -25 -10 -37
-10 -20 0 -23 5 -23 35 0 42 17 45 50 9z m240 11 c15 -18 10 -45 -12 -59 -26
-16 -53 14 -44 48 7 29 36 35 56 11z m-820 -37 c0 -4 -9 -8 -19 -8 -21 0 -31
17 -23 38 3 10 9 9 23 -4 11 -9 19 -21 19 -26z m1288 20 c21 -27 24 -58 7 -65
-21 -7 -35 12 -35 50 0 29 11 35 28 15z m-1008 -16 c0 -15 -85 -62 -112 -62
-35 0 -39 31 -5 48 45 22 117 31 117 14z m-836 -22 c36 -13 34 -40 -3 -40 -31
0 -57 22 -46 40 8 13 17 13 49 0z m1701 -10 c8 -24 -3 -80 -15 -80 -11 0 -20
26 -20 59 0 43 24 57 35 21z m414 11 c11 -7 10 -11 -7 -20 -43 -23 -86 -6 -44
18 21 13 33 13 51 2z m291 -33 c0 -11 -37 -10 -44 1 -4 5 -3 17 0 26 6 15 8
14 25 -1 11 -9 19 -21 19 -26z m-1383 -5 c7 -18 -15 -64 -33 -70 -11 -4 -34
46 -34 73 0 21 59 18 67 -3z m193 3 c0 -18 -15 -36 -31 -36 -22 0 -24 11 -7
28 11 11 38 17 38 8z m-595 -32 c22 -22 5 -40 -24 -25 -24 13 -28 41 -7 41 8
0 22 -7 31 -16z m-88 -53 c7 -11 26 -21 44 -23 18 -2 34 -8 36 -14 6 -18 -78
-46 -123 -42 -51 4 -59 36 -18 73 32 30 45 31 61 6z m248 -11 c9 -15 -14 -40
-36 -40 -27 0 -35 21 -14 37 22 16 41 17 50 3z m1709 -6 c19 -18 21 -40 4 -50
-15 -9 -49 32 -41 51 7 19 18 19 37 -1z m-2094 -15 c0 -11 9 -32 20 -46 11
-14 17 -29 14 -34 -8 -14 -61 -11 -101 6 -19 8 -39 15 -44 15 -16 0 -9 -27 12
-46 l21 -19 -22 -17 c-33 -27 -136 -55 -305 -83 -160 -27 -205 -30 -205 -16 0
16 119 71 250 116 72 25 180 68 238 95 59 27 110 49 115 50 4 0 7 -9 7 -21z
m1432 -7 c7 -27 -8 -59 -31 -65 -11 -2 -22 -2 -25 1 -12 11 -6 46 11 64 21 23
39 23 45 0z m268 -4 c26 -28 25 -34 -4 -53 -33 -22 -66 -5 -66 34 0 15 3 31 7
34 13 14 43 6 63 -15z m-1022 -27 c31 -55 29 -61 -28 -61 -40 0 -50 3 -50 16
0 19 38 84 49 84 4 0 17 -17 29 -39z m190 16 c4 -20 -25 -34 -40 -19 -15 15
-1 44 19 40 10 -2 19 -11 21 -21z m180 -6 c5 -30 -15 -52 -28 -31 -5 8 -10 25
-10 38 0 32 34 25 38 -7z m1324 -6 c9 -3 19 -13 22 -21 8 -22 -66 -18 -94 4
-44 36 1 46 72 17z m-1158 -21 c19 -19 20 -25 3 -48 -22 -31 -52 -16 -55 27
-3 31 0 37 17 37 11 0 27 -7 35 -16z m-4829 -34 c135 -11 265 -33 535 -91 102
-22 225 -44 273 -48 48 -5 90 -11 94 -14 3 -3 9 -28 14 -54 5 -26 17 -59 28
-73 26 -35 93 -67 180 -85 129 -27 129 -54 1 -81 -90 -20 -248 -22 -310 -5
-25 7 -89 38 -143 68 -292 166 -564 175 -1037 36 -293 -86 -376 -104 -508
-110 -134 -6 -243 7 -329 39 -70 26 -101 52 -113 97 -18 67 -5 97 74 162 125
103 225 142 412 158 131 12 690 12 829 1z m3796 -9 c-15 -27 -4 -32 51 -25 39
5 48 4 48 -8 0 -9 10 -22 22 -30 l22 -15 -21 -12 c-19 -10 -24 -8 -34 10 -10
20 -16 21 -85 15 -41 -4 -74 -3 -74 1 0 7 71 83 77 83 2 0 -1 -8 -6 -19z
m1777 -3 c2 -12 -5 -19 -23 -24 -31 -8 -50 7 -41 31 8 22 60 16 64 -7z m762
-32 c80 -18 204 -44 275 -56 72 -12 134 -26 138 -30 15 -13 -96 -34 -178 -34
-98 1 -174 22 -282 78 -46 24 -83 41 -83 39 0 -3 12 -22 27 -43 62 -85 152
-118 368 -131 227 -14 261 -21 397 -82 68 -30 148 -59 178 -66 161 -36 254
-88 397 -225 57 -54 103 -102 103 -106 0 -4 -78 -6 -172 -4 -517 13 -814 91
-1106 290 -51 35 -98 64 -103 64 -50 0 85 -125 198 -183 252 -130 514 -183
1048 -212 136 -8 192 -23 275 -75 271 -169 454 -216 888 -229 l257 -8 90 -38
c121 -50 166 -63 249 -71 l71 -6 105 -107 c161 -163 251 -198 483 -189 182 8
303 53 433 164 77 65 93 70 147 46 34 -15 48 -28 53 -48 15 -58 -63 -161 -218
-290 -146 -122 -251 -173 -486 -237 l-93 -25 -34 69 c-19 38 -35 75 -35 83 0
10 14 18 38 22 133 23 281 57 367 84 55 18 143 39 195 49 68 12 95 21 95 32 0
26 -102 15 -221 -24 -214 -71 -354 -97 -513 -97 -225 0 -367 51 -591 211 -187
133 -272 161 -500 165 -154 2 -157 3 -260 42 -141 53 -231 81 -477 147 -256
69 -461 131 -798 242 -229 76 -287 100 -480 197 -121 61 -260 137 -308 169
-48 31 -90 57 -93 57 -3 0 -3 -8 0 -17 2 -10 8 -34 12 -53 l7 -34 -53 57 c-44
48 -57 57 -86 57 -24 0 -34 5 -34 16 0 12 11 15 55 13 30 -1 58 1 62 4 9 9 26
255 19 273 -9 23 -38 16 -74 -18 l-34 -33 5 50 c10 96 52 104 277 51z m-2329
-112 c-28 -59 -53 -105 -56 -103 -2 3 2 27 11 54 8 28 19 67 25 87 5 20 22 52
37 69 45 54 38 11 -17 -107z m-323 61 c7 -21 11 -46 9 -54 -5 -22 -47 47 -47
77 0 36 23 21 38 -23z m-103 -112 c-22 -33 -191 -115 -229 -111 -38 4 -67 44
-73 101 -5 39 -2 47 18 60 13 8 47 17 75 20 28 3 89 18 135 34 l84 28 3 -53
c2 -37 -2 -62 -13 -79z m895 112 c18 -21 5 -45 -25 -45 -20 0 -25 5 -25 23 0
39 26 50 50 22z m-1502 -63 c11 -34 -206 -198 -328 -248 -68 -28 -269 -69
-385 -79 -106 -9 -98 -1 130 118 99 52 209 111 244 131 56 32 169 77 226 90
39 8 108 1 113 -12z m1175 -44 c43 -57 61 -100 46 -109 -8 -5 -17 -53 -25
-128 -7 -67 -22 -150 -34 -186 -65 -197 -313 -426 -495 -461 -31 -6 -39 -2
-75 34 -35 34 -40 46 -40 83 0 59 31 110 132 220 89 97 117 139 118 179 0 30
35 90 52 91 7 1 29 0 48 -1 l35 -2 -24 25 c-28 30 -23 40 37 78 56 35 73 37
43 5 -15 -16 -21 -33 -19 -52 5 -50 31 -33 76 51 23 44 54 96 68 117 15 21 24
44 20 53 -11 29 -36 15 -61 -35 -14 -27 -27 -50 -29 -50 -7 0 26 125 36 137
14 17 60 -7 91 -49z m1058 13 c-17 -31 -41 -27 -41 8 0 33 18 45 38 26 11 -10
11 -17 3 -34z m543 17 c9 -12 16 -42 16 -66 0 -41 -2 -44 -22 -37 -56 17 -69
17 -88 0 -24 -22 -25 -12 -5 46 28 78 68 101 99 57z m1451 -8 c299 -15 449
-29 491 -46 21 -9 91 -18 176 -23 105 -6 143 -12 155 -24 20 -19 11 -45 -20
-56 -76 -29 -543 -41 -677 -17 -104 19 -213 57 -328 116 -135 69 -139 73 -67
66 33 -3 155 -10 270 -16z m-6040 -10 c66 -5 219 -17 340 -25 214 -15 427 -34
433 -40 7 -7 -123 -48 -194 -61 -111 -20 -449 -30 -544 -15 -113 18 -250 89
-250 131 0 15 40 29 70 24 14 -2 79 -8 145 -14z m2047 -17 c24 -27 58 -100 58
-122 0 -11 -9 -25 -20 -31 -27 -15 -396 -63 -426 -56 -34 9 -30 33 14 73 119
110 329 187 374 136z m483 -40 c-30 -36 -45 -63 -42 -75 6 -23 -1 -23 -26 0
-19 17 -20 16 -14 -13 4 -21 -1 -39 -15 -60 -22 -32 -226 -188 -299 -229 -88
-49 -414 -100 -674 -107 -185 -4 -187 6 -15 71 69 26 197 80 285 119 201 91
300 131 325 131 50 0 7 -48 -150 -165 -129 -96 -164 -133 -92 -96 65 34 178
118 259 194 96 89 121 105 275 171 68 29 146 67 173 84 28 17 51 32 53 32 2 0
-18 -26 -43 -57z m645 32 c9 -11 10 -19 2 -27 -14 -14 -32 -1 -32 23 0 23 13
25 30 4z m1546 -20 c38 -22 84 -38 114 -42 39 -4 50 -10 50 -23 0 -38 -75 -40
-148 -4 -52 26 -92 65 -92 90 0 20 6 18 76 -21z m242 14 c2 -9 -3 -19 -11 -22
-18 -7 -59 21 -51 34 9 16 58 6 62 -12z m-598 -23 c0 -9 12 -16 33 -18 20 -2
32 -8 32 -18 0 -21 -32 -24 -60 -6 -24 16 -35 56 -15 56 6 0 10 -6 10 -14z
m-600 -15 c0 -12 -59 -32 -72 -25 -5 3 -4 12 3 20 13 15 69 19 69 5z m-1022
-33 c4 -22 -80 -121 -134 -157 -46 -30 -94 -41 -94 -21 0 12 75 97 126 142 65
58 96 69 102 36z m5617 1 c353 -21 714 -60 915 -100 58 -12 109 -24 113 -29
14 -13 -150 -33 -214 -26 -33 3 -106 15 -162 26 -276 53 -647 53 -953 -1 -273
-48 -799 -31 -807 26 -4 21 344 96 528 115 90 9 325 4 580 -11z m-885 2 c0
-43 -436 -42 -484 1 -6 4 101 8 237 8 145 0 247 -4 247 -9z m-3095 -124 c13
-41 26 -63 38 -65 13 -3 17 4 17 30 0 35 15 58 37 58 7 0 13 -12 13 -27 0 -16
14 -48 30 -72 17 -24 30 -48 30 -53 0 -13 -42 -9 -70 7 -44 25 -50 18 -27 -35
23 -55 16 -78 -14 -40 -26 34 -99 222 -99 256 0 43 21 15 45 -59z m173 63 c26
-42 143 -324 140 -339 -5 -23 -34 29 -107 186 -56 121 -72 173 -53 173 4 0 13
-9 20 -20z m-665 -14 c3 -12 -30 -32 -39 -24 -11 12 5 40 21 36 9 -2 17 -7 18
-12z m757 -28 c0 -4 -9 -8 -20 -8 -15 0 -20 7 -20 27 0 25 0 26 20 8 11 -10
20 -22 20 -27z m2445 -26 c202 -60 369 -82 629 -82 156 0 190 4 461 52 33 6
121 11 195 12 120 1 140 -1 183 -21 39 -18 52 -31 68 -67 22 -50 36 -63 51
-48 6 6 6 28 0 61 -7 40 -6 55 4 66 34 34 137 25 344 -30 127 -33 231 -34 328
-1 145 50 201 44 270 -25 53 -52 75 -101 80 -176 l4 -63 -108 0 c-102 -1 -230
-10 -350 -26 -51 -6 -51 -6 -107 44 -63 57 -89 67 -237 86 -257 35 -469 30
-880 -19 -113 -13 -259 -27 -325 -31 -213 -11 -474 22 -677 87 -108 35 -340
146 -346 167 -9 31 162 64 263 51 28 -4 95 -20 150 -37z m-2368 24 c-7 -17 12
-34 50 -46 24 -7 21 -8 -23 -9 -65 -1 -86 17 -55 48 24 24 35 27 28 7z m-1652
-157 c-24 -108 -81 -265 -124 -343 -55 -101 -58 -116 -30 -137 20 -15 21 -19
10 -33 -7 -9 -26 -16 -42 -16 -45 0 -134 -38 -196 -84 -98 -72 -263 -236 -295
-293 -27 -48 -121 -143 -140 -143 -18 0 -5 30 46 105 93 136 222 282 434 490
112 110 214 218 227 240 13 22 40 104 59 182 20 77 41 154 48 170 12 28 13 28
16 -20 2 -27 -4 -80 -13 -118z m3515 121 c14 -7 46 -32 71 -56 82 -75 260
-148 480 -198 158 -35 241 -46 411 -55 137 -7 149 -9 190 -35 41 -27 347 -333
348 -348 0 -4 -55 20 -122 53 -144 70 -169 74 -488 84 -476 15 -638 84 -1025
435 -99 89 -125 117 -125 132 0 15 229 5 260 -12z m-4813 -36 c17 -8 -8 -21
-145 -78 -335 -139 -464 -171 -543 -131 -85 43 -141 110 -109 130 5 3 78 17
162 30 84 13 194 33 243 44 73 16 117 20 230 17 77 -2 150 -8 162 -12z m669
-39 c4 -8 12 -15 20 -15 79 0 -166 -148 -501 -304 -202 -94 -336 -148 -449
-181 -89 -25 -224 -50 -231 -43 -6 5 199 80 308 113 183 54 366 147 637 325
195 127 206 133 216 105z m2628 -94 c94 -54 250 -140 346 -191 238 -127 282
-159 369 -274 40 -52 128 -148 196 -213 86 -82 125 -126 125 -141 0 -27 11
-26 -236 -7 -209 16 -280 27 -321 49 -71 37 -187 198 -218 303 -8 27 -23 58
-34 67 -22 20 -50 87 -80 191 -25 85 -34 100 -55 92 -19 -7 -17 -31 10 -138
19 -77 19 -76 -23 -90 -63 -21 -181 -17 -228 8 -49 26 -123 90 -164 142 l-30
38 24 -5 c35 -6 95 54 95 97 0 21 5 31 15 31 19 0 19 11 0 58 -14 33 -14 38 0
48 8 6 15 16 15 23 0 6 5 11 11 11 6 0 88 -44 183 -99z m4771 31 c93 -60 225
-207 225 -251 0 -18 -6 -21 -45 -21 -57 0 -146 31 -192 66 -40 30 -68 87 -86
170 -10 46 -9 57 3 64 19 12 45 4 95 -28z m-5574 7 c16 -16 18 -23 8 -35 -16
-19 -69 -14 -82 7 -27 44 35 67 74 28z m513 0 c20 -16 26 -29 26 -60 0 -37 -1
-39 -21 -29 -34 19 -99 81 -99 96 0 22 63 17 94 -7z m-1256 -11 c8 -8 9 -15 1
-25 -16 -18 -58 -16 -66 3 -11 28 41 46 65 22z m-2477 -154 c0 -13 -148 -53
-255 -68 -55 -9 -148 -18 -206 -21 l-105 -7 205 115 204 114 78 -63 c44 -35
79 -66 79 -70z m2269 74 c0 -4 -9 -8 -20 -8 -20 0 -28 29 -13 44 7 7 33 -21
33 -36z m1217 15 c4 -9 1 -19 -5 -21 -18 -6 -14 -34 13 -97 34 -77 27 -107 -8
-34 -40 84 -48 169 -17 169 6 0 14 -8 17 -17z m4403 -56 c41 -8 85 -19 96 -25
37 -20 112 -111 120 -144 6 -29 2 -36 -37 -71 -56 -50 -103 -73 -181 -92 -152
-36 -341 -2 -543 97 -114 56 -358 209 -348 219 7 7 145 23 293 33 111 8 527
-4 600 -17z m-4156 -13 c3 -9 3 -20 0 -25 -8 -13 -34 9 -34 27 0 19 26 18 34
-2z m-599 -24 c4 -6 4 -18 1 -27 -5 -12 -9 -13 -21 -3 -8 7 -15 19 -15 26 0
16 26 19 35 4z m3891 -76 c358 -206 422 -237 552 -259 206 -36 408 1 514 94
42 37 63 39 95 9 57 -53 6 -137 -120 -197 -114 -54 -178 -64 -417 -65 -235 0
-249 2 -397 77 -165 84 -432 304 -448 370 -22 86 35 78 221 -29z m-6156 56
c-49 -38 -559 -223 -892 -323 -108 -32 -118 -33 -132 -18 -13 14 -96 208 -96
224 0 11 72 43 120 55 107 26 198 34 395 33 198 -1 474 18 555 38 19 5 44 9
55 10 18 0 18 -1 -5 -19z m2995 -251 c72 -54 181 -141 242 -193 62 -53 132
-105 155 -117 59 -29 109 -71 283 -234 273 -257 404 -357 581 -449 40 -21 81
-47 92 -59 19 -21 19 -26 7 -90 -7 -37 -15 -71 -19 -74 -9 -10 -215 16 -306
38 -140 34 -231 82 -425 223 -261 188 -444 363 -603 576 -172 230 -258 361
-265 407 -4 22 -17 52 -29 68 -21 27 -21 27 -1 21 30 -9 33 2 17 59 -7 28 -17
61 -20 75 -5 18 18 -1 77 -64 46 -50 142 -133 214 -187z m-1227 233 c3 -16 -2
-22 -17 -22 -26 0 -36 17 -20 36 16 19 33 13 37 -14z m346 12 c22 -21 20 -34
-4 -34 -15 0 -20 7 -20 25 0 29 3 30 24 9z m-4904 -35 c102 -6 246 -17 320
-25 77 -9 270 -18 449 -21 181 -3 308 -9 299 -14 -33 -18 -205 -29 -468 -29
-468 0 -834 31 -1045 90 l-70 19 165 -5 c91 -3 248 -9 350 -15z m10405 0 c22
-12 59 -38 83 -57 49 -40 46 -46 -38 -56 -30 -4 -96 -16 -146 -28 -104 -24
-129 -20 -179 23 -62 55 -46 80 73 115 99 29 156 30 207 3z m337 -63 c48 -20
111 -39 140 -44 50 -7 53 -9 56 -38 4 -42 -34 -138 -71 -181 -30 -34 -33 -35
-80 -29 -71 8 -92 26 -116 99 -12 36 -38 91 -57 123 -61 101 -67 116 -53 124
15 10 66 -5 181 -54z m-6598 17 c11 -26 -11 -40 -28 -18 -8 11 -12 23 -10 27
9 14 32 8 38 -9z m1226 -40 c0 -18 -10 -16 -26 5 -22 28 -18 48 6 27 11 -10
20 -24 20 -32z m-3746 -13 c26 -26 -103 -100 -239 -136 -65 -18 -88 -17 -133
2 l-37 15 28 23 c27 22 165 77 255 102 50 14 108 12 126 -6z m2774 -22 c29
-29 -35 -51 -79 -27 -16 8 -18 13 -8 25 14 17 70 19 87 2z m-1190 -30 c5 -26
-98 -167 -159 -218 -32 -27 -87 -65 -121 -86 -63 -36 -208 -88 -281 -99 -49
-8 -101 -55 -177 -160 -87 -120 -164 -188 -237 -208 -88 -25 -121 -23 -133 9
-18 46 -12 117 15 171 34 67 181 209 265 255 36 20 153 71 260 113 107 42 260
109 340 148 212 104 222 107 228 75z m7352 -26 c31 -15 79 -77 68 -88 -3 -2
-66 -8 -140 -13 -139 -9 -173 -19 -255 -72 -29 -18 -34 -19 -39 -5 -19 48 30
140 89 169 79 39 208 43 277 9z m-8881 -29 c5 -21 12 -57 16 -79 l6 -42 -63
-11 c-83 -15 -258 -26 -292 -17 -19 5 -26 13 -26 30 0 32 17 44 96 66 38 10
105 34 149 53 44 19 85 35 92 36 7 1 17 -16 22 -36z m3349 -5 c-3 -25 -17 -32
-37 -19 -19 12 -6 41 19 41 16 0 21 -5 18 -22z m417 12 c4 -6 4 -18 1 -27 -5
-12 -9 -13 -21 -3 -8 7 -15 19 -15 26 0 16 26 19 35 4z m-85 -46 c0 -16 -26
-19 -35 -4 -4 6 -4 18 -1 27 5 12 9 13 21 3 8 -7 15 -19 15 -26z m703 24 c12
-6 28 -18 35 -27 21 -25 126 -241 120 -246 -6 -7 -107 67 -174 128 -63 57
-106 133 -84 147 21 13 77 12 103 -2z m939 -102 c145 -51 328 -115 408 -141
257 -85 350 -127 350 -161 0 -8 -25 -26 -54 -41 -30 -15 -53 -30 -50 -34 8
-13 72 14 123 52 28 22 55 39 60 39 13 0 417 -176 516 -225 122 -60 229 -132
302 -202 58 -57 123 -138 123 -155 0 -21 -23 -3 -66 53 -154 201 -399 303
-844 354 -279 32 -314 36 -320 42 -3 3 1 8 8 10 35 13 2 23 -75 23 -49 0 -117
7 -153 16 -84 19 -227 91 -315 156 -75 56 -264 235 -297 281 -19 27 -19 27 1
27 11 0 139 -42 283 -94z m-5817 65 c48 -22 95 -64 95 -85 0 -36 -139 -90
-301 -118 -58 -10 -70 -10 -92 5 -36 23 -80 84 -74 101 7 18 112 80 169 100
60 21 154 20 203 -3z m3305 -51 c-19 -12 -22 -12 -40 0 -13 9 -12 12 5 25 17
14 21 13 35 0 13 -14 13 -17 0 -25z m-4725 10 c61 -6 177 -27 259 -47 l150
-36 -35 -17 c-77 -40 -355 -163 -431 -191 -178 -66 -389 -89 -505 -54 -106 32
-179 114 -151 173 30 61 176 125 358 156 158 27 211 29 355 16z m3480 -10 c13
-12 48 -25 83 -31 34 -6 62 -15 62 -19 0 -5 -40 -57 -89 -117 -49 -59 -124
-163 -166 -230 -42 -67 -89 -133 -106 -147 -29 -24 -86 -46 -122 -46 -41 0
-50 111 -14 180 17 34 49 65 132 128 124 94 215 175 215 192 0 33 -176 -102
-366 -281 -123 -115 -168 -150 -304 -238 -41 -27 -118 -86 -170 -132 -146
-127 -270 -199 -343 -199 -35 0 -35 14 -1 139 36 133 39 137 119 144 134 13
229 79 313 221 56 93 98 133 149 141 95 14 139 28 214 65 102 51 150 84 256
176 46 41 92 74 101 74 8 0 25 -9 37 -20z m7331 -31 c8 -7 14 -30 14 -55 0
-39 -3 -46 -27 -55 -47 -18 -210 -6 -270 21 -29 12 -53 25 -53 29 0 11 74 54
115 68 47 15 199 10 221 -8z m-5202 -21 c23 -37 30 -71 15 -66 -19 6 -60 68
-53 79 9 15 23 10 38 -13z m4776 -4 c0 -47 -127 -177 -213 -217 -124 -58 -334
-73 -464 -33 -78 25 -181 101 -162 120 3 3 122 10 265 15 282 10 272 8 439 85
107 49 135 55 135 30z m-6426 -59 c-6 -57 -5 -65 10 -65 29 0 83 27 117 59 17
17 36 31 41 31 34 0 1 -98 -48 -143 -34 -31 -49 -34 -63 -9 -8 15 -26 17 -130
17 -67 0 -121 2 -121 5 1 3 26 21 56 40 31 19 74 56 97 81 23 26 43 47 45 48
1 1 0 -28 -4 -64z m1537 -8 c-15 -15 -41 11 -41 42 l1 26 25 -29 c17 -20 22
-32 15 -39z m5488 27 c9 -8 -23 -33 -51 -39 -21 -5 -35 -2 -46 9 -14 14 -13
17 19 30 29 13 64 13 78 0z m-10013 -9 c25 -10 35 -20 32 -32 -6 -33 -47 -44
-149 -41 -83 3 -100 6 -132 28 -20 14 -37 28 -37 32 0 26 228 37 286 13z
m4374 -36 c0 -13 -36 -29 -64 -29 -28 0 -33 11 -13 28 25 20 77 21 77 1z
m-4670 -28 c106 -58 123 -64 198 -70 l77 -6 -130 -74 c-72 -41 -169 -100 -216
-132 -111 -74 -207 -122 -294 -147 -158 -45 -169 -37 -73 59 41 41 85 96 99
124 21 44 24 63 23 163 l0 114 135 -4 c121 -3 141 -6 181 -27z m3820 -23 c0
-44 -87 -138 -128 -138 -21 0 -13 18 18 40 17 12 40 40 51 63 27 54 39 68 50
61 5 -3 9 -15 9 -26z m652 1 c-1 -13 -9 -31 -17 -39 -13 -13 -15 -10 -15 21 0
20 3 39 7 43 13 13 28 -1 25 -25z m-2652 12 c0 -15 -156 -183 -237 -255 -199
-176 -387 -257 -661 -287 -133 -15 -213 -6 -250 26 -34 30 -28 41 59 112 137
112 395 244 602 308 72 23 426 100 475 104 6 1 12 -3 12 -8z m-2172 -31 c19
-37 9 -139 -19 -197 -25 -49 -125 -143 -230 -216 -79 -54 -164 -64 -413 -49
-105 7 -204 16 -221 20 -29 8 -29 9 20 21 83 21 196 95 325 215 51 47 80 66
130 82 36 12 133 52 215 88 83 36 157 65 165 63 8 -1 20 -13 28 -27z m4233
-37 c-6 -21 -18 -47 -26 -58 -15 -19 -16 -18 -12 23 5 44 37 106 44 85 2 -6
-1 -29 -6 -50z m1131 40 c10 -9 18 -20 18 -25 0 -10 -56 17 -65 32 -10 16 27
11 47 -7z m2975 2 c95 -22 179 -64 347 -175 191 -124 246 -150 415 -195 74
-20 149 -45 167 -56 47 -29 97 -99 83 -116 -35 -41 -360 18 -514 93 -38 19
-149 92 -245 162 -96 71 -222 162 -279 203 -58 41 -106 80 -109 87 -5 17 57
16 135 -3z m-3997 -49 c0 -18 9 -45 20 -59 26 -33 25 -59 -4 -86 -42 -40 -60
-26 -69 54 -10 82 2 125 33 125 16 0 20 -7 20 -34z m780 4 c0 -16 -4 -30 -10
-30 -5 0 -10 14 -10 30 0 17 5 30 10 30 6 0 10 -13 10 -30z m380 11 c14 -28
-6 -38 -31 -15 -24 22 -24 34 1 34 10 0 24 -9 30 -19z m-560 -31 c0 -45 -16
-53 -30 -15 -11 29 -4 55 16 55 10 0 14 -12 14 -40z m275 9 c29 -26 35 -38 35
-71 0 -36 -2 -39 -16 -27 -21 17 -77 129 -64 129 5 0 25 -14 45 -31z m-809 7
c3 -8 4 -27 2 -43 l-3 -28 -19 27 c-18 28 -16 58 4 58 6 0 13 -6 16 -14z m929
-26 c16 -32 20 -80 6 -80 -4 0 -11 17 -14 38 -3 20 -8 45 -12 55 -12 28 3 19
20 -13z m-1840 0 c8 -26 -11 -93 -35 -122 l-20 -23 6 28 c6 26 5 27 -21 17
-35 -13 -41 -7 -21 22 9 12 16 32 16 45 0 22 33 53 57 53 6 0 14 -9 18 -20z
m1015 2 c0 -10 -5 -23 -12 -30 -7 -7 -11 -29 -10 -50 2 -26 -4 -47 -17 -63
l-19 -24 -7 37 c-7 38 -3 62 22 116 16 34 43 43 43 14z m188 -31 c7 -21 12
-48 12 -60 0 -28 10 -27 36 7 12 15 25 24 29 21 3 -4 14 -47 24 -96 11 -54 33
-117 55 -160 42 -81 44 -100 14 -105 -20 -3 -24 -10 -29 -66 -11 -113 -37
-103 -59 23 -6 39 -19 93 -27 120 -16 50 -51 110 -60 102 -2 -3 6 -37 17 -76
29 -94 16 -127 -30 -81 -16 16 -19 28 -14 64 5 31 1 58 -10 87 -16 41 -16 42
5 57 20 14 21 20 15 108 -8 99 2 122 22 55z m360 16 c6 -30 -19 -77 -43 -83
-13 -3 -34 0 -47 7 l-23 12 33 14 c26 11 32 18 27 33 -3 11 -3 25 0 30 11 17
49 7 53 -13z m638 -115 l26 -52 -18 -70 c-10 -38 -19 -69 -20 -67 -1 1 -7 37
-13 80 -6 44 -25 111 -41 150 -17 40 -30 76 -30 82 1 18 70 -69 96 -123z
m-5067 104 c-20 -18 -181 -122 -220 -142 -79 -39 -95 -25 -24 21 72 47 238
135 244 129 2 -2 2 -6 0 -8z m3965 -23 c9 -57 7 -131 -4 -138 -10 -6 -60 85
-60 112 0 16 37 63 50 63 4 0 10 -17 14 -37z m-934 -33 c-12 -23 -44 -42 -54
-33 -9 9 45 64 56 57 4 -3 3 -14 -2 -24z m1519 4 c12 -15 21 -41 21 -60 0 -53
-58 -99 -74 -59 -3 8 -16 15 -30 15 -41 0 -51 68 -14 107 29 31 71 30 97 -3z
m1671 -40 c157 -82 360 -257 360 -310 0 -39 -22 -127 -37 -151 -36 -54 -115
-47 -228 19 -165 97 -306 207 -499 388 l-109 103 219 -5 219 -4 75 -40z m240
21 c39 -14 102 -36 141 -50 89 -32 128 -40 314 -59 314 -34 505 -65 556 -91
50 -26 126 -160 96 -170 -30 -11 -203 -25 -312 -25 -263 0 -530 75 -685 193
-67 52 -208 185 -221 209 -8 15 -6 18 16 18 14 0 57 -11 95 -25z m-1648 -2 c9
-10 19 -33 23 -51 7 -33 49 -71 63 -58 4 4 11 26 17 49 16 66 30 45 27 -41 -3
-99 -8 -122 -29 -122 -21 0 -113 98 -113 121 0 9 -11 24 -25 33 -24 16 -35 63
-18 79 12 13 40 7 55 -10z m-117 -85 c29 -23 55 -74 55 -108 0 -29 -17 -25
-25 7 -9 38 -23 53 -50 53 -23 0 -35 17 -35 51 0 25 21 24 55 -3z m-1305 -23
c23 -19 53 -38 66 -41 13 -3 24 -9 24 -14 0 -24 -98 -75 -168 -86 -37 -6 -42
-4 -42 13 0 18 65 163 74 163 2 0 23 -16 46 -35z m1010 16 c13 -26 13 -31 -3
-31 -19 0 -36 20 -30 36 7 20 21 17 33 -5z m-2279 -112 c-14 -63 -52 -119
-131 -193 -61 -56 -175 -137 -237 -170 -40 -20 -79 -21 -87 0 -11 29 -6 96 10
130 23 48 106 120 205 178 46 28 120 76 164 108 l80 59 3 -31 c2 -17 -1 -54
-7 -81z m-784 -2 c5 -57 2 -70 -23 -116 -34 -63 -162 -188 -236 -230 -29 -17
-56 -31 -60 -31 -15 0 -8 34 11 54 11 12 38 73 61 136 49 139 70 171 135 214
103 68 105 68 112 -27z m3023 -31 c0 -79 -6 -109 -21 -100 -10 6 -12 117 -3
152 13 45 24 20 24 -52z m-591 -9 c17 -21 24 -73 13 -94 -10 -16 -12 -15 -22
12 -28 71 -22 119 9 82z m-1534 -17 c3 -5 -48 -65 -114 -134 -66 -69 -122
-135 -126 -146 -6 -17 -12 -20 -35 -15 -26 6 -31 3 -44 -29 -20 -48 -88 -96
-137 -96 -32 0 -38 -4 -47 -29 -6 -17 -20 -32 -34 -36 -12 -4 -34 -18 -48 -30
-72 -67 -481 -230 -508 -203 -6 6 -23 0 -47 -16 -68 -46 -263 -94 -279 -68 -4
6 38 44 96 88 57 42 164 139 238 214 127 127 140 137 203 159 37 12 111 42
164 67 62 29 100 41 106 35 16 -16 -2 -96 -26 -118 -12 -12 -51 -31 -87 -43
-86 -30 -134 -55 -195 -101 -58 -43 -185 -161 -140 -130 17 12 49 35 72 51
142 101 530 251 568 220 8 -6 19 -9 25 -5 14 9 13 32 -2 37 -8 3 8 23 37 49
27 24 99 91 160 149 122 116 184 156 200 130z m5510 -45 c80 -48 158 -117 206
-180 50 -67 50 -79 0 -72 -75 10 -253 132 -286 198 -8 15 -15 42 -15 59 0 40
21 39 95 -5z m-6671 -30 c0 -68 -53 -172 -117 -232 -46 -43 -51 -45 -93 -39
-64 8 -84 22 -84 55 0 68 221 279 280 268 11 -2 15 -16 14 -52z m2240 20 c-6
-33 -5 -35 25 -41 21 -5 31 -12 31 -25 0 -23 1 -23 -45 -3 -36 15 -39 14 -76
-10 -21 -14 -41 -26 -43 -26 -10 0 14 64 31 83 15 17 72 57 81 57 2 0 0 -16
-4 -35z m3675 -95 c297 -90 361 -119 453 -207 38 -37 77 -81 85 -97 14 -27 14
-31 -3 -43 -10 -7 -32 -13 -49 -13 -49 0 -133 -28 -227 -77 -85 -44 -89 -45
-155 -39 -37 4 -144 10 -238 15 -173 8 -203 14 -296 61 -72 37 -79 46 -79 111
0 80 24 139 57 139 57 0 77 33 88 143 11 113 6 107 72 92 32 -8 163 -46 292
-85z m-6559 14 c9 -10 -214 -202 -320 -276 -85 -59 -131 -82 -207 -102 -34 -8
-102 -35 -150 -60 -127 -63 -162 -72 -205 -52 -19 9 -58 41 -87 70 l-53 54 28
6 c16 3 56 8 89 12 261 28 432 109 659 311 33 30 74 57 90 62 29 7 142 -11
156 -25z m400 -4 c-30 -43 -200 -197 -337 -307 -172 -138 -376 -233 -439 -204
-27 12 -69 93 -60 116 3 8 24 24 48 36 56 29 119 76 258 193 63 54 138 111
165 127 67 38 194 65 328 68 l58 1 -21 -30z m6794 -20 c14 -5 56 -34 92 -64
78 -65 131 -91 228 -115 69 -17 71 -19 103 -72 19 -30 38 -71 45 -91 14 -49
-7 -82 -70 -110 -38 -17 -59 -20 -125 -15 -69 5 -92 12 -175 53 l-97 49 160 5
c154 6 237 20 250 40 8 13 8 13 -72 -6 -46 -11 -100 -15 -168 -12 -131 4 -194
33 -260 116 -55 71 -115 112 -236 162 -52 22 -89 40 -84 41 242 27 373 33 409
19z m-6348 -95 c-25 -59 -104 -172 -170 -243 -115 -123 -284 -231 -466 -297
-62 -22 -85 -26 -132 -20 -105 11 -149 30 -207 89 l-53 54 23 15 c141 89 210
137 303 211 60 49 119 91 130 96 12 4 41 0 73 -11 29 -11 66 -19 82 -19 84 0
218 49 307 112 109 76 137 79 110 13z m1515 -28 c-23 -37 -61 -75 -61 -61 0
20 69 108 78 99 2 -2 -5 -19 -17 -38z m2959 -143 c32 -19 94 -61 137 -94 103
-80 203 -148 283 -193 87 -48 328 -226 354 -260 20 -27 20 -27 0 -53 -10 -14
-37 -39 -59 -55 l-41 -29 -74 37 c-41 21 -120 58 -175 83 -216 97 -413 293
-499 497 -14 34 -26 74 -26 88 0 32 15 29 100 -21z m-3685 -106 c-7 -34 -78
-162 -96 -173 -11 -8 -3 80 13 132 9 32 51 72 76 73 10 0 12 -9 7 -32z m-2111
-57 c21 -19 46 -64 46 -84 0 -29 -74 -47 -190 -47 -60 0 -121 5 -135 10 -25
10 -26 12 -13 32 18 27 116 83 178 102 50 16 86 12 114 -13z m1986 -50 c0 -26
-91 -141 -112 -141 -29 0 31 126 71 150 25 15 41 12 41 -9z m5090 -23 c17 -5
30 -14 30 -19 0 -15 -83 -33 -156 -33 -57 0 -81 5 -130 29 -55 27 -57 30 -34
37 33 10 252 0 290 -14z m-5380 -61 c0 -49 -133 -186 -290 -298 -101 -72 -360
-185 -390 -169 -25 13 -35 52 -21 78 14 27 128 125 169 146 40 21 41 36 2 36
-16 0 -30 3 -30 8 1 8 139 105 158 110 24 7 11 -22 -25 -53 -21 -18 -34 -37
-30 -41 8 -9 98 34 242 117 85 49 175 88 203 89 6 0 12 -10 12 -23z m3830 -11
c0 -41 -21 -63 -40 -42 -18 22 -3 76 21 76 15 0 19 -7 19 -34z m238 -29 c12
-11 22 -26 22 -32 0 -6 14 -33 31 -59 20 -33 29 -58 27 -79 -4 -42 -24 -45
-37 -4 -6 19 -32 57 -56 86 -30 35 -45 62 -45 80 0 47 12 48 58 8z m-4718
-232 c-18 -19 -36 -32 -39 -30 -6 7 50 65 63 65 5 0 -5 -16 -24 -35z m5891
-407 c95 -131 156 -330 113 -372 -22 -23 -30 -21 -73 25 -45 46 -91 131 -91
168 0 15 -9 41 -20 59 -35 57 -19 162 26 162 7 0 28 -19 45 -42z m-6247 -188
c0 -74 -7 -119 -32 -205 -17 -60 -38 -128 -47 -150 -15 -34 -18 -37 -27 -21
-9 16 -12 16 -33 2 -14 -9 -27 -16 -30 -16 -14 0 -2 147 19 231 40 156 97 264
136 257 12 -3 15 -20 14 -98z m-114 -766 c14 -35 12 -50 -6 -68 -38 -39 -75
34 -37 76 22 24 32 23 43 -8z"/>
<path d="M6280 6538 c-33 -54 -56 -136 -42 -150 9 -9 12 -8 12 5 0 13 9 17 34
17 52 0 60 -18 36 -81 -28 -72 -7 -50 60 60 55 92 60 111 30 111 -11 0 -37 16
-59 35 -21 19 -41 35 -45 35 -3 0 -15 -15 -26 -32z"/>
<path d="M6075 6551 c-3 -6 -1 -37 4 -68 6 -32 13 -85 17 -118 7 -60 7 -60 20
-30 16 36 18 116 4 166 -12 41 -34 66 -45 50z"/>
<path d="M6533 6548 c-21 -25 -40 -80 -53 -154 -10 -56 -10 -75 0 -94 l13 -23
13 24 c36 65 60 288 27 247z"/>
<path d="M6627 6453 c-39 -66 -51 -98 -42 -114 5 -7 14 -3 27 10 10 12 23 19
28 16 12 -7 57 22 64 41 4 11 -3 9 -25 -6 -16 -12 -33 -20 -36 -16 -3 3 1 32
10 66 8 33 13 60 12 60 -2 0 -19 -26 -38 -57z"/>
<path d="M5921 6466 c-16 -19 -5 -39 53 -96 25 -24 46 -48 46 -53 0 -5 -16
-27 -35 -50 -37 -43 -44 -77 -20 -97 20 -17 42 2 66 55 33 71 20 155 -33 219
-31 38 -58 45 -77 22z"/>
<path d="M5852 6378 c-19 -19 -14 -42 18 -73 36 -35 47 -19 28 40 -14 42 -27
52 -46 33z"/>
<path d="M6410 6339 c0 -17 4 -28 10 -24 6 3 10 17 10 31 0 13 -4 24 -10 24
-5 0 -10 -14 -10 -31z"/>
<path d="M6986 6291 c-8 -12 62 -101 79 -101 11 0 11 7 3 38 -5 20 -17 45 -26
55 -16 18 -47 23 -56 8z"/>
<path d="M5685 6210 c-4 -6 7 -10 27 -10 25 0 29 3 18 10 -19 13 -37 13 -45 0z"/>
<path d="M6826 6204 c-4 -9 -4 -19 -2 -21 9 -10 46 9 46 23 0 19 -36 18 -44
-2z"/>
<path d="M6395 5926 c-9 -14 -19 -43 -22 -66 -5 -32 -3 -40 10 -40 24 0 47 40
47 82 0 46 -14 56 -35 24z"/>
<path d="M6475 5906 c-26 -68 -7 -122 22 -65 15 28 17 109 4 109 -5 0 -17 -20
-26 -44z"/>
<path d="M6208 5832 c-23 -55 -38 -122 -28 -122 13 0 51 111 48 139 -3 23 -5
22 -20 -17z"/>
<path d="M4194 5687 c27 -35 46 -47 46 -29 0 9 -36 44 -59 57 -8 5 -2 -8 13
-28z"/>
<path d="M5583 4758 c-16 -24 -55 -92 -87 -152 -86 -165 -130 -224 -291 -395
-45 -49 -74 -86 -67 -89 19 -6 76 41 189 157 102 105 102 105 123 86 27 -25
53 -10 60 33 3 17 17 40 33 52 15 12 34 34 42 50 35 68 64 288 38 297 -6 2
-24 -15 -40 -39z m2 -95 c-20 -46 -35 -64 -35 -40 0 24 28 77 40 77 6 0 3 -17
-5 -37z m-49 -125 c-6 -29 -74 -113 -84 -104 -4 4 31 77 56 114 21 33 36 28
28 -10z"/>
<path d="M5389 4608 c-26 -24 -56 -85 -46 -94 16 -16 117 68 117 98 0 26 -41
23 -71 -4z"/>
<path d="M9253 3163 c20 -2 54 -2 75 0 20 2 3 4 -38 4 -41 0 -58 -2 -37 -4z"/>
<path d="M9447 3141 c4 -4 40 -18 78 -31 127 -42 228 -97 309 -169 51 -44 62
-24 15 26 -45 47 -138 108 -204 132 -56 21 -213 54 -198 42z"/>
<path d="M4316 7667 c-16 -12 -17 -18 -7 -50 14 -41 97 -181 165 -279 71 -101
130 -162 222 -229 86 -62 101 -79 62 -72 -13 2 -30 -1 -38 -6 -12 -8 -11 -13
8 -34 14 -15 22 -36 22 -59 0 -24 9 -47 29 -72 17 -21 27 -43 25 -51 -4 -9 9
-21 35 -34 24 -12 58 -44 81 -76 77 -104 225 -199 389 -249 97 -29 104 -27
141 48 39 82 29 102 -161 313 -63 70 -153 177 -199 236 -45 60 -93 112 -105
117 -12 5 -41 6 -63 3 -51 -7 -92 3 -92 21 0 33 -30 46 -108 46 -63 0 -84 4
-117 24 -48 29 -123 126 -171 221 -32 62 -35 76 -29 122 3 28 3 53 -2 56 -24
14 -70 16 -87 4z m616 -603 c22 4 28 2 28 -12 0 -10 17 -24 41 -35 27 -13 64
-49 118 -115 43 -54 91 -108 106 -122 39 -36 82 -101 87 -130 3 -22 8 -25 45
-25 36 0 40 -2 28 -15 -7 -8 -17 -27 -20 -43 -10 -37 -19 -41 -57 -21 -61 31
-211 138 -258 184 -51 49 -123 186 -154 290 -19 62 -21 97 -3 62 9 -19 16 -23
39 -18z"/>
<path d="M658 3922 c-43 -39 -32 -50 13 -13 19 16 31 32 27 36 -3 3 -21 -7
-40 -23z"/>
<path d="M5020 3411 c-19 -36 -10 -101 14 -101 7 0 18 11 24 25 16 35 15 38
-8 32 -23 -6 -26 12 -10 44 7 12 7 19 1 19 -6 0 -15 -9 -21 -19z"/>
<path d="M7350 3234 c0 -14 18 -67 40 -119 46 -107 46 -109 24 -176 -13 -39
-14 -52 -4 -64 15 -18 32 -10 28 13 -2 12 5 18 26 20 25 3 28 1 23 -18 -5 -21
-5 -21 14 -4 27 24 24 41 -11 59 -16 9 -30 20 -30 26 0 6 20 30 44 53 61 60
86 146 41 146 -8 0 -15 -9 -15 -20 0 -25 -16 -26 -29 -2 -8 14 -13 15 -30 5
-32 -20 -37 -17 -76 47 -20 33 -38 60 -41 60 -2 0 -4 -11 -4 -26z"/>
<path d="M7741 3150 c0 -37 2 -41 9 -22 6 13 6 31 0 45 -7 18 -9 14 -9 -23z"/>
<path d="M6720 3010 c0 -16 5 -30 10 -30 6 0 10 14 10 30 0 17 -4 30 -10 30
-5 0 -10 -13 -10 -30z"/>
<path d="M7297 3033 c-12 -11 -8 -58 6 -78 16 -20 37 -13 37 13 0 22 -35 74
-43 65z"/>
<path d="M7790 2996 c0 -20 5 -36 10 -36 6 0 10 13 10 29 0 17 -4 33 -10 36
-6 4 -10 -8 -10 -29z"/>
<path d="M5526 2977 c-37 -48 -49 -86 -31 -93 29 -12 75 50 75 101 0 34 -14
32 -44 -8z"/>
<path d="M6356 2953 c-10 -21 -25 -49 -33 -63 -16 -23 -17 -23 -25 -5 -5 13
-7 -6 -4 -48 6 -75 -1 -78 -35 -17 -13 22 -25 40 -28 40 -3 0 -6 -32 -6 -72
l0 -71 75 2 c41 1 78 5 82 7 5 3 29 2 54 -2 33 -5 48 -12 54 -28 17 -46 21 11
5 88 -30 146 -48 163 -103 100 l-34 -39 6 45 c4 25 9 57 12 73 8 37 1 34 -20
-10z"/>
<path d="M7216 2969 c-19 -30 -30 -132 -18 -173 11 -39 38 -50 28 -12 l-7 27
46 -6 c38 -6 45 -5 45 10 0 36 -33 127 -54 152 l-23 27 -17 -25z"/>
<path d="M5612 2938 c-23 -25 -46 -78 -37 -86 3 -3 6 -3 8 -1 1 2 17 28 34 57
34 54 31 68 -5 30z"/>
<path d="M5924 2916 c-3 -8 1 -54 9 -102 l14 -89 11 53 c13 58 15 112 6 136
-8 20 -33 21 -40 2z"/>
<path d="M6122 2896 c-22 -50 -26 -110 -9 -142 22 -41 29 -17 25 87 -3 78 -4
82 -16 55z"/>
<path d="M6523 2844 c2 -39 9 -79 14 -89 10 -17 11 -17 23 5 7 12 14 50 16 84
l4 61 -19 -50 -19 -50 -2 35 c-1 19 -6 44 -11 55 -6 14 -8 -1 -6 -51z"/>
<path d="M6706 2901 c-12 -19 -35 -124 -30 -133 4 -6 27 -8 55 -4 41 6 49 4
58 -13 6 -11 11 -30 11 -43 1 -22 2 -22 30 10 16 17 34 32 38 32 5 0 22 -18
37 -40 44 -63 51 -34 15 59 -20 50 -30 94 -28 112 5 32 -3 37 -22 14 -7 -8
-11 -34 -8 -60 2 -25 2 -45 0 -45 -1 0 -16 15 -32 34 -17 19 -41 37 -55 40
-13 3 -29 15 -35 26 -11 21 -25 26 -34 11z"/>
<path d="M7116 2878 c-3 -7 -9 -28 -15 -47 -6 -19 -11 -47 -11 -62 0 -30 15
-47 23 -26 9 23 20 147 13 147 -4 0 -8 -6 -10 -12z"/>
<path d="M7043 2735 c0 -22 2 -30 4 -17 2 12 2 30 0 40 -3 9 -5 -1 -4 -23z"/>
<path d="M6621 2720 c0 -33 1 -34 10 -11 6 16 6 28 -1 35 -7 7 -10 -1 -9 -24z"/>
<path d="M4946 2698 c-9 -13 -16 -43 -16 -71 0 -38 5 -53 25 -73 34 -34 68
-29 76 11 11 49 10 115 -1 136 -15 27 -64 25 -84 -3z"/>
<path d="M5095 2626 c-21 -54 -14 -86 8 -36 23 56 29 80 19 80 -6 0 -18 -20
-27 -44z"/>
<path d="M5167 2593 c-10 -10 -8 -63 2 -63 11 0 32 56 24 64 -8 8 -18 8 -26
-1z"/>
<path d="M5443 2441 c-27 -44 -23 -141 6 -141 13 0 34 106 27 136 -8 29 -17
30 -33 5z"/>
<path d="M7239 2404 c-19 -24 -15 -72 9 -97 29 -28 47 -12 32 27 -5 15 -10 38
-10 51 0 30 -14 39 -31 19z"/>
<path d="M7346 2394 c-8 -20 12 -56 27 -51 17 5 21 35 7 52 -16 19 -26 19 -34
-1z"/>
<path d="M8116 2389 c-15 -21 -10 -54 14 -98 6 -12 12 -36 12 -52 2 -49 68
-65 83 -20 10 32 -52 174 -81 185 -8 3 -20 -4 -28 -15z"/>
<path d="M5553 2390 c-26 -10 -28 -23 -12 -68 l11 -31 24 27 23 27 1 -27 c0
-30 29 -52 54 -42 22 8 22 87 0 108 -17 17 -66 20 -101 6z"/>
<path d="M7430 2381 c0 -18 19 -51 30 -51 17 0 11 26 -10 45 -13 11 -20 14
-20 6z"/>
<path d="M5767 2353 c-4 -3 -7 -49 -6 -102 l1 -96 13 55 c8 30 14 71 14 90 1
37 -11 65 -22 53z"/>
<path d="M7108 2333 c-17 -44 -16 -118 2 -118 9 0 14 7 12 18 -2 11 4 27 12
36 12 14 13 24 5 54 -5 20 -12 37 -15 37 -2 0 -10 -12 -16 -27z"/>
<path d="M5844 2339 c-11 -19 -8 -88 6 -104 22 -26 30 -17 30 34 0 71 -16 102
-36 70z"/>
<path d="M5941 2298 c-1 -60 12 -108 29 -108 16 0 10 59 -10 115 l-18 50 -1
-57z"/>
<path d="M6983 2323 c-17 -6 -16 -33 2 -57 8 -10 17 -38 21 -62 9 -63 24 -44
24 31 0 89 -8 104 -47 88z"/>
<path d="M6077 2303 c-9 -8 -9 -76 -1 -97 19 -49 54 22 40 79 -6 24 -25 33
-39 18z"/>
<path d="M6410 2259 c0 -31 4 -48 10 -44 6 3 10 26 10 51 0 24 -4 44 -10 44
-5 0 -10 -23 -10 -51z"/>
<path d="M6489 2299 c-4 -48 16 -129 32 -129 5 0 9 24 9 53 0 41 -5 58 -20 72
-16 14 -20 15 -21 4z"/>
<path d="M6877 2291 c-5 -20 9 -51 23 -51 11 0 13 30 4 54 -8 21 -21 20 -27
-3z"/>
<path d="M6772 2283 c-20 -17 -26 -36 -23 -77 1 -16 7 -12 34 19 l34 39 7 -35
c7 -39 38 -79 61 -79 20 0 19 6 -7 43 -12 16 -24 46 -27 66 -5 29 -11 37 -32
39 -14 2 -35 -5 -47 -15z"/>
<path d="M6276 2250 c-20 -51 -21 -82 -2 -78 8 2 22 -6 31 -17 15 -19 15 -16
9 40 l-7 60 22 -19 c19 -17 21 -17 21 -3 0 18 -34 57 -49 57 -5 0 -16 -18 -25
-40z"/>
<path d="M6192 2268 c-22 -22 -8 -78 20 -78 4 0 8 20 8 45 0 46 -7 54 -28 33z"/>
<path d="M4670 2245 c0 -24 49 -70 62 -57 11 11 -5 51 -26 64 -18 13 -36 9
-36 -7z"/>
<path d="M7201 2233 c-2 -63 70 -100 77 -40 3 24 0 27 -28 27 -22 0 -33 6 -40
23 -8 20 -9 19 -9 -10z"/>
<path d="M6671 2232 c-1 -32 31 -102 36 -80 2 9 -5 36 -16 60 -15 33 -20 38
-20 20z"/>
<path d="M6596 2223 c-7 -18 11 -83 24 -83 13 0 20 60 10 81 -13 23 -26 24
-34 2z"/>
<path d="M4803 2135 c0 -22 2 -30 4 -17 2 12 2 30 0 40 -3 9 -5 -1 -4 -23z"/>
<path d="M7877 2154 c-25 -25 26 -191 55 -181 22 7 16 121 -8 153 -22 30 -36
38 -47 28z"/>
<path d="M8210 2143 c-42 -5 -60 -19 -60 -44 0 -46 75 -44 135 3 20 16 23 23
14 34 -11 14 -22 15 -89 7z"/>
<path d="M4945 2110 c-15 -17 -16 -20 -3 -20 25 0 29 -25 34 -180 6 -162 9
-190 26 -190 11 0 5 329 -8 383 -8 32 -24 35 -49 7z"/>
<path d="M8027 2042 c5 -73 4 -80 -18 -100 -42 -40 -119 -50 -119 -16 0 20
-30 30 -41 13 -5 -8 -9 -32 -9 -55 0 -49 -8 -59 -31 -38 -16 14 -18 14 -28 -4
-7 -13 -8 -49 -5 -94 6 -62 4 -76 -10 -88 -25 -20 -32 -3 -39 88 -4 43 -9 116
-13 165 -12 154 -26 108 -44 -149 -10 -150 -17 -198 -32 -228 -18 -34 -27 -2
-37 130 -9 132 -24 187 -54 213 -16 12 -17 7 -17 -60 -1 -84 -14 -153 -37
-188 -15 -23 -16 -24 -29 -6 -10 13 -14 51 -14 122 0 57 -4 103 -9 103 -10 0
-21 -34 -21 -68 0 -36 -18 -16 -25 29 -10 57 -21 38 -34 -61 -14 -101 -38
-190 -51 -190 -10 0 -15 18 -24 81 -2 21 -20 57 -40 84 -20 25 -36 57 -36 71
0 81 -101 -44 -130 -162 -5 -23 -29 -65 -51 -93 -27 -34 -43 -65 -46 -91 -3
-22 -9 -40 -13 -40 -12 0 -40 113 -40 162 0 25 7 59 16 76 13 26 14 51 8 139
-9 120 -9 119 -38 -77 -12 -74 -23 -114 -38 -135 -14 -18 -25 -53 -29 -89 -8
-62 -22 -87 -39 -70 -6 6 -18 48 -26 95 -18 95 -25 107 -62 111 -25 3 -27 6
-30 61 -4 76 -20 83 -76 28 -46 -45 -56 -49 -56 -24 0 13 -8 9 -34 -16 -31
-30 -40 -45 -77 -123 -7 -16 -16 -28 -21 -28 -4 0 -8 46 -8 103 -1 101 -1 102
-18 72 l-17 -30 -5 40 c-6 45 -15 38 -25 -20 -12 -65 -24 -75 -18 -14 6 66 -4
169 -18 169 -5 0 -12 -18 -15 -39 -4 -23 -17 -49 -30 -62 -30 -28 -63 -133
-70 -219 -7 -95 -14 -130 -24 -130 -11 0 -37 120 -50 235 -20 168 -26 183 -49
119 -17 -46 -73 -109 -130 -146 -25 -15 -48 -28 -52 -28 -5 0 -20 27 -34 59
-15 33 -38 70 -51 82 l-24 23 -33 -31 c-17 -16 -39 -33 -48 -36 -17 -6 -35
-55 -23 -66 4 -3 9 0 11 7 8 21 33 13 44 -15 23 -60 69 -232 69 -257 0 -19 -5
-26 -18 -26 -30 0 -48 28 -95 151 -25 63 -57 139 -71 167 -30 60 -31 63 -11
56 20 -8 19 5 -6 61 -15 33 -20 60 -16 86 6 44 -4 50 -28 17 -12 -18 -14 -36
-9 -80 l7 -58 -32 0 -31 0 0 -78 c0 -90 -15 -127 -41 -96 -15 19 -19 100 -6
148 5 16 22 42 39 58 30 27 30 28 7 28 -39 0 -51 15 -57 69 -2 28 -8 51 -12
51 -15 0 -20 -46 -20 -180 0 -128 -1 -133 -17 -117 -14 14 -18 33 -16 93 1 63
-1 75 -14 70 -9 -4 -17 1 -20 14 -7 28 -21 25 -29 -6 -7 -27 -1 -152 12 -253
5 -40 4 -52 -4 -47 -7 4 -12 18 -12 31 0 13 -15 39 -34 59 -56 60 -75 184 -36
233 35 45 21 81 -28 74 -13 -1 -25 4 -28 14 -6 14 -10 13 -29 -11 l-22 -28
-13 23 c-8 16 -10 44 -5 88 8 78 -7 78 -30 0 -13 -42 -33 -322 -35 -484 0 -13
-4 -23 -9 -23 -18 0 -51 68 -51 105 0 21 -7 46 -16 56 -10 11 -18 48 -23 102
-9 96 -15 110 -42 102 -25 -8 -25 17 -2 138 16 85 16 90 0 102 -24 17 -54 8
-61 -18 -3 -12 -6 -71 -6 -132 -1 -96 -2 -108 -14 -92 -17 22 -36 124 -37 198
0 60 -12 46 -23 -31 -7 -50 -21 -78 -32 -67 -4 4 -14 33 -21 65 -12 53 -13 45
-8 -108 2 -91 0 -174 -4 -185 -8 -19 -10 -18 -20 9 -6 16 -15 66 -20 111 -9
92 -33 143 -70 152 -21 5 -32 -2 -63 -38 -52 -60 -109 -177 -116 -235 l-5 -49
22 19 c21 19 21 19 21 -7 0 -34 14 -41 44 -22 14 9 30 13 37 9 7 -4 23 6 40
27 15 19 30 31 34 27 15 -14 -9 -49 -81 -119 -41 -41 -69 -76 -63 -78 6 -2 26
13 45 33 33 36 74 48 74 22 0 -8 -11 -38 -25 -68 -30 -65 -31 -78 -4 -78 13 0
20 -6 18 -17 -3 -35 1 -43 24 -43 12 0 36 9 52 20 39 26 44 25 56 -7 8 -21 6
-40 -9 -83 -26 -73 -33 -106 -25 -114 4 -4 19 20 34 54 23 49 32 60 52 60 13
0 34 11 47 25 39 41 34 21 -14 -56 -45 -73 -57 -120 -40 -164 6 -14 10 -10 20
15 12 28 16 31 30 19 11 -9 14 -23 11 -46 -3 -18 -3 -33 0 -33 4 0 44 36 89
80 77 76 104 94 104 69 0 -22 -21 -47 -55 -68 -26 -15 -43 -37 -61 -77 -22
-50 -28 -56 -49 -51 -27 5 -32 -10 -15 -44 14 -24 32 -24 55 1 35 39 76 12 60
-40 -4 -13 -1 -22 9 -26 9 -3 16 -15 16 -26 0 -19 1 -19 30 2 32 23 56 58 46
68 -3 3 -17 -5 -31 -18 -32 -30 -42 -21 -14 13 14 18 30 27 50 27 40 0 39 -30
-7 -117 l-35 -68 56 59 c31 32 58 56 61 54 2 -3 -3 -24 -11 -48 -17 -48 -19
-80 -6 -80 23 0 162 191 183 252 8 22 16 28 32 26 28 -4 25 -44 -11 -123 -14
-33 -27 -75 -27 -92 0 -27 -4 -33 -22 -33 -33 0 -42 -37 -16 -63 l20 -20 24
24 c13 13 46 63 73 112 46 83 81 115 71 65 -14 -65 -48 -215 -52 -230 -3 -10
0 -18 5 -18 6 0 22 24 35 54 41 93 64 82 26 -14 -11 -28 -20 -61 -20 -73 0
-20 2 -19 29 11 17 17 38 32 49 32 12 0 25 14 38 42 10 23 29 48 41 56 20 13
23 12 30 -3 3 -10 0 -39 -7 -64 -19 -67 -19 -105 2 -109 12 -2 19 5 24 22 3
14 22 37 41 52 32 24 34 29 28 65 -6 34 -4 39 12 39 11 0 25 6 31 12 10 10 12
1 11 -43 -2 -61 6 -83 27 -75 16 6 44 -19 44 -39 0 -8 -12 -15 -27 -17 -23 -2
-30 -11 -42 -46 -16 -53 -9 -62 27 -35 41 30 70 78 97 162 l24 76 1 -52 c0
-63 7 -83 29 -83 21 0 41 39 41 78 0 21 2 24 10 12 5 -8 10 -32 10 -53 0 -28
7 -44 25 -61 14 -13 25 -32 25 -43 0 -10 6 -28 14 -38 13 -18 14 -18 24 2 11
19 33 126 50 243 5 35 7 -11 4 -127 -5 -197 -2 -224 25 -202 9 8 23 30 31 49
l15 35 15 -37 c8 -21 18 -38 23 -38 17 0 29 82 36 245 l6 169 25 -64 c28 -75
40 -227 24 -322 -5 -32 -6 -58 -3 -58 3 0 19 28 36 62 21 45 29 78 29 116 0
28 1 52 2 52 1 0 12 -16 25 -36 16 -26 22 -51 21 -85 0 -27 3 -51 8 -54 15
-10 30 32 38 107 l8 73 17 -38 c9 -20 23 -37 32 -37 8 0 30 -20 47 -45 18 -25
35 -45 40 -45 12 0 35 51 67 147 19 55 36 89 46 91 22 5 48 -61 40 -100 -7
-28 -6 -29 14 -19 27 15 38 37 52 102 l11 52 42 -84 c47 -95 72 -117 50 -43
-8 26 -11 50 -8 53 3 3 36 8 72 11 57 4 67 8 70 25 7 51 14 65 28 65 14 0 15
12 9 88 l-6 87 20 -24 c12 -13 21 -37 22 -55 0 -39 21 -98 35 -103 8 -3 7 21
-3 79 -20 117 -27 178 -19 178 4 0 20 -29 35 -64 18 -39 36 -65 48 -68 12 -3
22 -17 26 -36 5 -23 16 -35 50 -51 24 -11 56 -21 72 -21 l29 0 -26 28 c-33 35
-48 65 -48 96 0 39 19 41 35 3 12 -30 17 -33 44 -29 26 4 31 1 31 -17 0 -26
28 -40 41 -20 5 8 9 39 9 69 0 78 11 92 47 59 39 -37 78 -60 86 -52 13 13 7
54 -19 118 -31 76 -27 106 5 48 33 -58 91 -79 91 -33 0 23 36 50 66 50 30 0
36 11 17 32 -15 17 -14 18 24 18 53 0 81 29 65 65 -6 14 -16 25 -22 25 -5 0
-10 5 -10 10 0 6 10 10 23 10 31 0 47 18 47 52 0 22 5 29 28 33 46 10 56 20
70 69 17 61 75 122 124 131 l38 7 -20 28 c-11 16 -23 43 -27 60 -5 29 -4 32
15 26 28 -9 58 21 72 74 15 55 10 72 -24 88 l-28 14 38 39 c28 29 33 39 21 39
-9 0 -17 7 -17 15 0 11 -12 15 -49 15 -34 0 -56 6 -75 21 -26 21 -34 53 -16
64 18 11 10 37 -21 66 -17 16 -35 29 -39 29 -5 0 -6 -35 -3 -78z m-3447 -146
c0 -14 -4 -28 -10 -31 -6 -4 -10 7 -10 24 0 17 5 31 10 31 6 0 10 -11 10 -24z
m3383 -117 c-8 -29 -13 -23 -13 14 0 22 3 28 9 18 5 -7 6 -22 4 -32z m-3473
-13 c0 -7 -5 -27 -11 -45 -9 -25 -14 -29 -25 -20 -18 15 -18 29 2 57 17 25 34
29 34 8z m645 -70 c18 -91 18 -96 6 -96 -12 0 -31 88 -31 142 0 58 8 43 25
-46z m2079 1 c16 -12 16 -18 6 -58 -19 -75 -31 -99 -51 -99 -25 0 -51 42 -56
94 -5 37 -2 46 18 60 28 19 59 21 83 3z m-624 -67 c6 -11 8 -35 5 -53 -4 -22
1 -54 14 -92 22 -61 28 -145 11 -145 -5 0 -15 18 -21 40 -14 45 -24 51 -34 19
-6 -17 -9 -19 -16 -8 -10 16 -12 219 -3 243 9 22 31 20 44 -4z m-550 -120 c0
-21 -4 -42 -10 -45 -6 -4 -10 13 -10 45 0 32 4 49 10 45 6 -3 10 -24 10 -45z
m299 -1 c6 -18 11 -43 11 -56 0 -44 17 -63 50 -56 42 8 40 -18 -6 -59 -44 -40
-61 -51 -73 -44 -5 4 -12 44 -16 91 -11 128 8 198 34 124z m-899 -80 c0 -16
-4 -29 -10 -29 -5 0 -10 16 -10 36 0 21 4 33 10 29 6 -3 10 -19 10 -36z m617
-146 c4 -32 2 -53 -4 -53 -15 0 -33 71 -32 126 l1 49 15 -35 c8 -19 17 -58 20
-87z m1667 -24 c-7 -12 -31 -11 -39 1 -4 6 -4 18 -1 27 6 14 8 14 26 -2 11
-10 17 -22 14 -26z m-200 -125 c22 -8 20 -21 -5 -34 -15 -9 -24 -8 -36 1 -13
12 -13 14 3 26 21 15 18 15 38 7z m-256 -186 c-19 -36 -23 -40 -26 -21 -2 12
7 44 19 70 21 45 23 46 26 21 3 -15 -6 -45 -19 -70z m-238 -124 c0 -68 -9 -80
-28 -39 -15 33 -15 88 0 103 20 20 28 2 28 -64z m-1356 10 c8 -20 -12 -56 -27
-51 -17 5 -21 35 -7 52 16 19 26 19 34 -1z m884 -83 c5 -30 -15 -52 -28 -31
-5 8 -10 25 -10 38 0 32 34 25 38 -7z"/>
<path d="M8165 2016 c-25 -18 -13 -46 20 -46 29 0 85 26 85 39 0 23 -76 28
-105 7z"/>
<path d="M7043 1820 c0 -30 2 -43 4 -27 2 15 2 39 0 55 -2 15 -4 2 -4 -28z"/>
<path d="M7320 1809 c0 -17 4 -28 10 -24 6 3 10 17 10 31 0 13 -4 24 -10 24
-5 0 -10 -14 -10 -31z"/>
<path d="M6756 1814 c-10 -26 -7 -151 4 -134 14 25 24 137 12 144 -5 3 -13 -1
-16 -10z"/>
<path d="M6856 1776 c-8 -32 2 -114 15 -122 5 -3 14 6 20 20 13 28 6 83 -15
111 -12 17 -13 16 -20 -9z"/>
<path d="M7010 1665 c0 -22 4 -34 10 -30 6 3 10 17 10 30 0 13 -4 27 -10 30
-6 4 -10 -8 -10 -30z"/>
<path d="M2690 58 c-16 -22 -30 -45 -30 -51 0 -11 71 50 89 76 9 14 8 17 -9
17 -12 0 -32 -17 -50 -42z"/>
</g>
</svg>
